<?xml version="1.0" encoding="utf-8"?>
<svg xmlns="http://www.w3.org/2000/svg" xmlns:xlink="http://www.w3.org/1999/xlink" width="600" height="400" viewBox="0 0 2400 1600">
<defs>
  <clipPath id="clip940">
    <rect x="0" y="0" width="2400" height="1600"/>
  </clipPath>
</defs>
<path clip-path="url(#clip940)" d="
M0 1600 L2400 1600 L2400 0 L0 0  Z
  " fill="#ffffff" fill-rule="evenodd" fill-opacity="1"/>
<defs>
  <clipPath id="clip941">
    <rect x="480" y="0" width="1681" height="1600"/>
  </clipPath>
</defs>
<path clip-path="url(#clip940)" d="
M47.2441 1552.76 L2352.76 1552.76 L2352.76 47.2441 L47.2441 47.2441  Z
  " fill="#ffffff" fill-rule="evenodd" fill-opacity="1"/>
<defs>
  <clipPath id="clip942">
    <rect x="47" y="47" width="2307" height="1507"/>
  </clipPath>
</defs>
<polyline clip-path="url(#clip942)" style="stroke:#000000; stroke-linecap:butt; stroke-linejoin:round; stroke-width:12; stroke-opacity:1; fill:none" points="
  1435.99,310.097 1416.53,297.764 1416.45,277.915 1400.67,280.425 1363.98,255.585 1295.17,289.317 1295.76,259.611 1252.14,256.081 1244.23,228.746 1245.56,184.724 
  1265.09,163.386 1272.25,151.45 1303.42,132.807 1267.01,91.1554 1224.75,89.8529 1210.15,118.111 1188.36,110.023 1183.67,180.028 1188.74,224.302 1203.05,259.384 
  1199.97,293.983 1172.92,307.813 1136,303.574 1122.73,320.363 1034.7,334.977 1020.98,376.835 960.894,451.013 923.27,463.143 885.948,469.942 868.165,519.761 
  809.612,562.983 751.009,566.717 734.113,535.999 720.572,539.518 729.558,619.092 669.38,614.021 657.943,586.21 583.163,591.28 575.81,640.331 649.865,687.959 
  693.378,709.562 686.909,729.966 727.438,780.18 717.326,848.406 710.304,890.473 671.222,980.014 419.109,940.258 381.728,909.312 313.779,935.096 313.534,1036.36 
  313.5,1105.07 246.564,1247.31 256.123,1323.98 241.92,1376.89 326.969,1381.01 374.644,1411.17 379.217,1464.55 429.451,1483.53 487.761,1447.97 593.824,1459.64 
  621.812,1410.84 684.284,1415.52 692.592,1361.54 725.304,1337.76 704.53,1275.2 779.273,1146.89 899.715,1117.43 897.252,1049.62 937.391,1004.39 1003.7,1006.55 
  1045.55,1046.88 1176.82,946.017 1245.4,980.316 1287.24,1091.35 1514.37,1275.21 1532.62,1342.83 1501.87,1406.1 1409.84,1415.13 1394.84,1401.51 1341.01,1439.44 
  1484.01,1510.15 1503.19,1485.26 1494.14,1460.81 1538.57,1419.02 1562.79,1361.16 1592.11,1346.69 1589.07,1316.84 1560.7,1282.31 1580.29,1235.6 1610.2,1256.34 
  1644.93,1287.65 1654.41,1262.79 1623.11,1209.75 1524.55,1161.2 1544.46,1133.73 1462.38,1118.99 1429.54,1089.61 1415.1,1017.11 1353.23,971.443 1353.64,918.062 
  1347.95,891.397 1397.06,862.396 1420.77,926.182 1446.21,896.732 1527.57,1018.39 1579.85,1019.68 1644.67,1079.17 1692.07,1133.69 1702.1,1252.45 1756.93,1331.15 
  1789.28,1372.85 1807.56,1390.79 1790.39,1424.7 1826.46,1479.83 1875.74,1498.23 1902.02,1498.94 1903.06,1430.33 1946.26,1404.78 1883.13,1341.63 1892.78,1302.64 
  1853.2,1226.71 1925.97,1245.33 2015.75,1176.91 2046.71,1116.53 2107.39,1087.86 2081.79,1044.74 2118.56,945.677 2131.87,876.681 2155.38,873.617 2158.08,849.079 
  2097.6,840.753 2078.93,752.321 2006.74,644.435 1918.47,695.553 1835.8,689.559 1797.13,655.797 1818.81,617.618 1814.83,565.936 1861.8,505.233 1842.75,432.491 
  1825.4,398.293 1863.09,354.555 1825.53,270.025 1791.89,245.415 1654.3,259.144 1619.24,258.311 1607.43,226.753 1465.6,279.98 1435.99,310.097 
  "/>
<circle clip-path="url(#clip942)" cx="1918.56" cy="1098.17" r="36" fill="#1f77b4" fill-rule="evenodd" fill-opacity="1" stroke="none"/>
<circle clip-path="url(#clip942)" cx="1650.3" cy="532.906" r="36" fill="#ff7e0d" fill-rule="evenodd" fill-opacity="1" stroke="none"/>
<circle clip-path="url(#clip942)" cx="1027.55" cy="849.072" r="36" fill="#2ba02b" fill-rule="evenodd" fill-opacity="1" stroke="none"/>
<circle clip-path="url(#clip942)" cx="423.955" cy="1222.72" r="36" fill="#d52628" fill-rule="evenodd" fill-opacity="1" stroke="none"/>
<path clip-path="url(#clip942)" d="M1857.74 1381.24 L1843.64 1421.8 L1800.68 1422.7 L1834.94 1448.68 L1822.46 1489.78 L1857.74 1465.24 L1893.02 1489.78 L1880.54 1448.68 L1914.8 1422.7 L1871.84 1421.8 L1857.74 1381.24 Z" fill="#9466bd" fill-rule="evenodd" fill-opacity="1" stroke="none"/>
</svg>
