<?xml version="1.0" encoding="utf-8"?>
<svg xmlns="http://www.w3.org/2000/svg" xmlns:xlink="http://www.w3.org/1999/xlink" width="600" height="400" viewBox="0 0 2400 1600">
<defs>
  <clipPath id="clip330">
    <rect x="0" y="0" width="2400" height="1600"/>
  </clipPath>
</defs>
<path clip-path="url(#clip330)" d="
M0 1600 L2400 1600 L2400 0 L0 0  Z
  " fill="#ffffff" fill-rule="evenodd" fill-opacity="1"/>
<defs>
  <clipPath id="clip331">
    <rect x="480" y="0" width="1681" height="1600"/>
  </clipPath>
</defs>
<path clip-path="url(#clip330)" d="
M47.2441 1552.76 L2352.76 1552.76 L2352.76 47.2441 L47.2441 47.2441  Z
  " fill="#ffffff" fill-rule="evenodd" fill-opacity="1"/>
<defs>
  <clipPath id="clip332">
    <rect x="47" y="47" width="2307" height="1507"/>
  </clipPath>
</defs>
<path clip-path="url(#clip332)" d="
M1477.33 1532.95 L1487.24 1532.95 L1497.14 1532.95 L1497.14 1532.95 L1507.05 1523.04 L1507.05 1523.04 L1516.95 1513.14 L1516.95 1513.14 L1516.95 1503.23 L1516.95 1493.33 
  L1516.95 1493.33 L1507.05 1483.42 L1516.95 1473.52 L1516.95 1473.52 L1526.85 1463.61 L1526.85 1463.61 L1536.76 1453.71 L1536.76 1453.71 L1546.66 1443.8 L1546.66 1443.8 
  L1556.57 1433.9 L1556.57 1433.9 L1556.57 1424 L1566.47 1414.09 L1566.47 1414.09 L1566.47 1404.19 L1576.38 1394.28 L1576.38 1394.28 L1576.38 1384.38 L1586.28 1374.47 
  L1596.19 1374.47 L1596.19 1374.47 L1606.09 1364.57 L1606.09 1364.57 L1606.09 1354.66 L1606.09 1344.76 L1606.09 1334.85 L1606.09 1334.85 L1596.19 1324.95 L1596.19 1315.04 
  L1596.19 1315.04 L1586.28 1305.14 L1586.28 1305.14 L1576.38 1295.23 L1586.28 1285.33 L1586.28 1285.33 L1586.28 1275.42 L1586.28 1265.52 L1596.19 1255.62 L1606.09 1265.52 
  L1606.09 1265.52 L1616 1265.52 L1625.9 1275.42 L1625.9 1275.42 L1635.81 1285.33 L1635.81 1285.33 L1645.71 1295.23 L1645.71 1295.23 L1655.62 1295.23 L1665.52 1295.23 
  L1665.52 1295.23 L1675.42 1285.33 L1675.42 1285.33 L1675.42 1275.42 L1675.42 1275.42 L1665.52 1265.52 L1665.52 1255.62 L1665.52 1255.62 L1655.62 1245.71 L1655.62 1245.71 
  L1645.71 1235.81 L1645.71 1225.9 L1645.71 1225.9 L1635.81 1216 L1635.81 1216 L1625.9 1216 L1616 1206.09 L1616 1206.09 L1606.09 1206.09 L1596.19 1196.19 
  L1596.19 1196.19 L1586.28 1196.19 L1576.38 1186.28 L1576.38 1186.28 L1566.47 1186.28 L1556.57 1176.38 L1556.57 1176.38 L1546.66 1166.47 L1556.57 1156.57 L1556.57 1156.57 
  L1556.57 1146.66 L1556.57 1146.66 L1546.66 1136.76 L1546.66 1136.76 L1536.76 1136.76 L1526.85 1136.76 L1516.95 1136.76 L1507.05 1126.85 L1507.05 1126.85 L1497.14 1126.85 
  L1487.24 1126.85 L1477.33 1126.85 L1467.43 1116.95 L1467.43 1116.95 L1457.52 1107.05 L1457.52 1107.05 L1447.62 1107.05 L1437.71 1097.14 L1437.71 1087.24 L1437.71 1077.33 
  L1437.71 1067.43 L1437.71 1057.52 L1437.71 1057.52 L1427.81 1047.62 L1427.81 1037.71 L1427.81 1027.81 L1427.81 1027.81 L1417.9 1017.9 L1417.9 1017.9 L1408 1008 
  L1408 1008 L1398.09 998.094 L1398.09 998.094 L1388.19 988.189 L1388.19 988.189 L1378.28 988.189 L1368.38 978.284 L1368.38 978.284 L1358.47 968.38 L1368.38 958.475 
  L1368.38 958.475 L1368.38 948.57 L1368.38 938.666 L1368.38 928.761 L1368.38 928.761 L1358.47 918.856 L1358.47 908.952 L1358.47 899.047 L1368.38 889.142 L1368.38 889.142 
  L1378.28 879.237 L1388.19 879.237 L1388.19 879.237 L1398.09 869.333 L1408 879.237 L1408 889.142 L1408 899.047 L1408 899.047 L1417.9 908.952 L1417.9 918.856 
  L1417.9 918.856 L1427.81 918.856 L1437.71 918.856 L1437.71 918.856 L1447.62 908.952 L1457.52 908.952 L1467.43 918.856 L1467.43 928.761 L1467.43 928.761 L1477.33 938.666 
  L1477.33 938.666 L1487.24 948.57 L1487.24 958.475 L1487.24 958.475 L1497.14 968.38 L1497.14 968.38 L1507.05 978.284 L1507.05 988.189 L1507.05 988.189 L1516.95 998.094 
  L1516.95 998.094 L1526.85 1008 L1526.85 1017.9 L1526.85 1017.9 L1536.76 1027.81 L1536.76 1027.81 L1546.66 1027.81 L1556.57 1027.81 L1566.47 1027.81 L1576.38 1027.81 
  L1586.28 1027.81 L1596.19 1037.71 L1596.19 1037.71 L1606.09 1047.62 L1606.09 1047.62 L1616 1047.62 L1625.9 1057.52 L1625.9 1057.52 L1635.81 1067.43 L1635.81 1067.43 
  L1645.71 1077.33 L1645.71 1077.33 L1655.62 1087.24 L1655.62 1087.24 L1665.52 1097.14 L1665.52 1097.14 L1675.42 1107.05 L1675.42 1107.05 L1685.33 1116.95 L1685.33 1126.85 
  L1685.33 1126.85 L1695.23 1136.76 L1695.23 1136.76 L1705.14 1146.66 L1705.14 1156.57 L1705.14 1166.47 L1705.14 1176.38 L1705.14 1186.28 L1705.14 1196.19 L1705.14 1206.09 
  L1705.14 1216 L1705.14 1216 L1715.04 1225.9 L1715.04 1235.81 L1715.04 1245.71 L1715.04 1255.62 L1715.04 1265.52 L1715.04 1265.52 L1724.95 1275.42 L1724.95 1285.33 
  L1724.95 1285.33 L1734.85 1295.23 L1734.85 1295.23 L1744.76 1305.14 L1744.76 1315.04 L1744.76 1315.04 L1754.66 1324.95 L1754.66 1324.95 L1764.57 1334.85 L1764.57 1344.76 
  L1764.57 1344.76 L1774.47 1354.66 L1774.47 1354.66 L1784.38 1364.57 L1784.38 1364.57 L1794.28 1374.47 L1794.28 1384.38 L1794.28 1384.38 L1804.19 1394.28 L1804.19 1394.28 
  L1814.09 1404.19 L1814.09 1404.19 L1824 1414.09 L1814.09 1424 L1814.09 1424 L1814.09 1433.9 L1814.09 1443.8 L1814.09 1453.71 L1814.09 1463.61 L1814.09 1463.61 
  L1824 1473.52 L1824 1473.52 L1833.9 1483.42 L1833.9 1493.33 L1833.9 1493.33 L1843.8 1503.23 L1843.8 1503.23 L1853.71 1513.14 L1853.71 1513.14 L1863.61 1513.14 
  L1873.52 1513.14 L1883.42 1523.04 L1883.42 1523.04 L1893.33 1523.04 L1903.23 1523.04 L1913.14 1523.04 L1923.04 1523.04 L1923.04 1523.04 L1932.95 1513.14 L1932.95 1513.14 
  L1932.95 1503.23 L1932.95 1493.33 L1932.95 1483.42 L1932.95 1473.52 L1932.95 1463.61 L1932.95 1453.71 L1942.85 1443.8 L1952.76 1443.8 L1952.76 1443.8 L1962.66 1433.9 
  L1962.66 1433.9 L1962.66 1424 L1962.66 1414.09 L1962.66 1414.09 L1952.76 1404.19 L1952.76 1404.19 L1942.85 1394.28 L1942.85 1394.28 L1932.95 1384.38 L1932.95 1384.38 
  L1923.04 1374.47 L1923.04 1374.47 L1913.14 1364.57 L1913.14 1354.66 L1913.14 1344.76 L1913.14 1334.85 L1923.04 1324.95 L1923.04 1324.95 L1923.04 1315.04 L1923.04 1315.04 
  L1913.14 1305.14 L1913.14 1295.23 L1913.14 1295.23 L1903.23 1285.33 L1903.23 1275.42 L1903.23 1275.42 L1893.33 1265.52 L1903.23 1255.62 L1913.14 1255.62 L1923.04 1255.62 
  L1932.95 1255.62 L1942.85 1265.52 L1942.85 1265.52 L1952.76 1265.52 L1952.76 1265.52 L1962.66 1255.62 L1962.66 1255.62 L1972.57 1245.71 L1972.57 1245.71 L1982.47 1235.81 
  L1992.37 1235.81 L1992.37 1235.81 L2002.28 1225.9 L2002.28 1225.9 L2012.18 1216 L2012.18 1216 L2022.09 1206.09 L2031.99 1206.09 L2031.99 1206.09 L2041.9 1196.19 
  L2041.9 1196.19 L2051.8 1186.28 L2051.8 1186.28 L2051.8 1176.38 L2061.71 1166.47 L2061.71 1166.47 L2061.71 1156.57 L2071.61 1146.66 L2071.61 1146.66 L2071.61 1136.76 
  L2081.52 1126.85 L2091.42 1126.85 L2091.42 1126.85 L2101.33 1116.95 L2111.23 1116.95 L2111.23 1116.95 L2121.14 1107.05 L2131.04 1107.05 L2131.04 1107.05 L2140.94 1097.14 
  L2140.94 1097.14 L2140.94 1087.24 L2140.94 1087.24 L2131.04 1077.33 L2131.04 1077.33 L2121.14 1067.43 L2121.14 1057.52 L2121.14 1047.62 L2121.14 1037.71 L2121.14 1027.81 
  L2131.04 1017.9 L2131.04 1017.9 L2131.04 1008 L2140.94 998.094 L2140.94 998.094 L2140.94 988.189 L2140.94 978.284 L2150.85 968.38 L2150.85 968.38 L2150.85 958.475 
  L2150.85 948.57 L2160.75 938.666 L2160.75 938.666 L2160.75 928.761 L2160.75 918.856 L2160.75 908.952 L2160.75 899.047 L2170.66 889.142 L2170.66 889.142 L2180.56 879.237 
  L2180.56 879.237 L2190.47 869.333 L2190.47 869.333 L2190.47 859.428 L2190.47 849.523 L2190.47 849.523 L2180.56 839.619 L2180.56 839.619 L2170.66 839.619 L2160.75 839.619 
  L2150.85 839.619 L2140.94 839.619 L2131.04 829.714 L2131.04 819.809 L2131.04 809.905 L2131.04 809.905 L2121.14 800 L2121.14 790.095 L2121.14 780.191 L2121.14 770.286 
  L2121.14 770.286 L2111.23 760.381 L2111.23 750.477 L2111.23 740.572 L2111.23 740.572 L2101.33 730.667 L2101.33 730.667 L2091.42 720.763 L2091.42 710.858 L2091.42 710.858 
  L2081.52 700.953 L2081.52 700.953 L2071.61 691.048 L2071.61 681.144 L2071.61 681.144 L2061.71 671.239 L2061.71 671.239 L2051.8 661.334 L2051.8 651.43 L2051.8 651.43 
  L2041.9 641.525 L2041.9 641.525 L2031.99 641.525 L2022.09 641.525 L2012.18 641.525 L2012.18 641.525 L2002.28 651.43 L2002.28 651.43 L1992.37 661.334 L1982.47 661.334 
  L1982.47 661.334 L1972.57 671.239 L1962.66 671.239 L1962.66 671.239 L1952.76 681.144 L1942.85 681.144 L1932.95 681.144 L1923.04 681.144 L1913.14 681.144 L1903.23 681.144 
  L1893.33 681.144 L1883.42 681.144 L1873.52 681.144 L1863.61 681.144 L1853.71 681.144 L1843.8 671.239 L1843.8 671.239 L1833.9 661.334 L1833.9 661.334 L1824 651.43 
  L1824 641.525 L1833.9 631.62 L1833.9 631.62 L1833.9 621.716 L1843.8 611.811 L1843.8 611.811 L1843.8 601.906 L1843.8 592.002 L1843.8 582.097 L1843.8 572.192 
  L1843.8 562.288 L1843.8 552.383 L1853.71 542.478 L1853.71 542.478 L1863.61 532.574 L1863.61 532.574 L1863.61 522.669 L1873.52 512.764 L1873.52 512.764 L1883.42 502.86 
  L1883.42 502.86 L1883.42 492.955 L1883.42 483.05 L1883.42 473.145 L1883.42 463.241 L1883.42 463.241 L1873.52 453.336 L1873.52 443.431 L1873.52 433.527 L1873.52 423.622 
  L1873.52 423.622 L1863.61 413.717 L1863.61 403.813 L1863.61 403.813 L1853.71 393.908 L1853.71 384.003 L1863.61 374.099 L1863.61 374.099 L1863.61 364.194 L1873.52 354.289 
  L1873.52 354.289 L1883.42 344.385 L1883.42 344.385 L1883.42 334.48 L1883.42 324.575 L1883.42 314.671 L1883.42 314.671 L1873.52 304.766 L1873.52 294.861 L1873.52 294.861 
  L1863.61 284.956 L1863.61 275.052 L1863.61 275.052 L1853.71 265.147 L1853.71 255.242 L1853.71 255.242 L1843.8 245.338 L1843.8 245.338 L1833.9 235.433 L1833.9 235.433 
  L1824 225.528 L1824 225.528 L1814.09 225.528 L1804.19 225.528 L1794.28 225.528 L1784.38 225.528 L1774.47 225.528 L1764.57 225.528 L1754.66 225.528 L1744.76 225.528 
  L1734.85 225.528 L1724.95 225.528 L1715.04 225.528 L1715.04 225.528 L1705.14 235.433 L1695.23 235.433 L1685.33 235.433 L1675.42 235.433 L1665.52 235.433 L1655.62 235.433 
  L1645.71 235.433 L1635.81 225.528 L1635.81 225.528 L1625.9 215.624 L1625.9 215.624 L1616 205.719 L1616 205.719 L1606.09 205.719 L1596.19 205.719 L1596.19 205.719 
  L1586.28 215.624 L1576.38 215.624 L1576.38 215.624 L1566.47 225.528 L1556.57 225.528 L1546.66 225.528 L1546.66 225.528 L1536.76 235.433 L1526.85 235.433 L1516.95 235.433 
  L1516.95 235.433 L1507.05 245.338 L1497.14 245.338 L1497.14 245.338 L1487.24 255.242 L1477.33 255.242 L1477.33 255.242 L1467.43 265.147 L1467.43 265.147 L1457.52 275.052 
  L1457.52 275.052 L1447.62 284.956 L1437.71 284.956 L1427.81 275.052 L1427.81 265.147 L1427.81 265.147 L1417.9 255.242 L1417.9 255.242 L1408 255.242 L1398.09 255.242 
  L1388.19 245.338 L1388.19 245.338 L1378.28 235.433 L1378.28 235.433 L1368.38 235.433 L1358.47 235.433 L1358.47 235.433 L1348.57 245.338 L1338.67 245.338 L1338.67 245.338 
  L1328.76 255.242 L1318.86 255.242 L1318.86 255.242 L1308.95 265.147 L1299.05 255.242 L1299.05 245.338 L1299.05 245.338 L1289.14 235.433 L1289.14 235.433 L1279.24 235.433 
  L1269.33 235.433 L1259.43 225.528 L1259.43 225.528 L1249.52 215.624 L1249.52 205.719 L1249.52 195.814 L1249.52 185.91 L1249.52 176.005 L1249.52 166.1 L1259.43 156.196 
  L1259.43 156.196 L1269.33 146.291 L1269.33 146.291 L1279.24 136.386 L1279.24 136.386 L1289.14 126.482 L1289.14 126.482 L1299.05 116.577 L1299.05 116.577 L1299.05 106.672 
  L1299.05 96.7675 L1299.05 96.7675 L1289.14 86.8628 L1289.14 86.8628 L1279.24 76.9581 L1279.24 67.0535 L1279.24 67.0535 L1269.33 57.1488 L1269.33 57.1488 L1259.43 57.1488 
  L1249.52 57.1488 L1239.62 57.1488 L1229.71 57.1488 L1229.71 57.1488 L1219.81 67.0535 L1219.81 67.0535 L1209.9 76.9581 L1209.9 76.9581 L1200 86.8628 L1190.1 86.8628 
  L1180.19 86.8628 L1180.19 86.8628 L1180.19 96.7675 L1180.19 106.672 L1180.19 116.577 L1180.19 126.482 L1180.19 136.386 L1180.19 146.291 L1180.19 156.196 L1180.19 166.1 
  L1180.19 176.005 L1180.19 185.91 L1180.19 195.814 L1180.19 205.719 L1180.19 205.719 L1190.1 215.624 L1190.1 225.528 L1190.1 225.528 L1200 235.433 L1200 245.338 
  L1200 255.242 L1200 265.147 L1190.1 275.052 L1190.1 275.052 L1180.19 284.956 L1170.29 284.956 L1160.38 284.956 L1150.48 284.956 L1140.57 284.956 L1130.67 284.956 
  L1130.67 284.956 L1120.76 294.861 L1110.86 294.861 L1110.86 294.861 L1100.95 304.766 L1091.05 304.766 L1081.14 304.766 L1071.24 304.766 L1061.33 304.766 L1051.43 304.766 
  L1051.43 304.766 L1041.53 314.671 L1031.62 314.671 L1031.62 314.671 L1021.72 324.575 L1021.72 324.575 L1021.72 334.48 L1011.81 344.385 L1011.81 344.385 L1011.81 354.289 
  L1011.81 364.194 L1001.91 374.099 L1001.91 374.099 L992.002 384.003 L992.002 384.003 L982.097 393.908 L982.097 393.908 L972.192 403.813 L972.192 403.813 L972.192 413.717 
  L962.288 423.622 L962.288 423.622 L952.383 433.527 L942.478 433.527 L942.478 433.527 L932.574 443.431 L922.669 443.431 L912.764 443.431 L902.86 443.431 L902.86 443.431 
  L892.955 453.336 L883.05 453.336 L883.05 453.336 L873.145 463.241 L873.145 463.241 L863.241 473.145 L863.241 473.145 L863.241 483.05 L853.336 492.955 L853.336 492.955 
  L853.336 502.86 L843.431 512.764 L843.431 512.764 L833.527 522.669 L833.527 522.669 L823.622 532.574 L813.717 532.574 L813.717 532.574 L803.813 542.478 L803.813 542.478 
  L793.908 552.383 L784.003 552.383 L774.099 552.383 L764.194 552.383 L754.289 552.383 L744.385 552.383 L734.48 542.478 L734.48 542.478 L724.575 532.574 L724.575 532.574 
  L714.671 522.669 L714.671 522.669 L704.766 522.669 L704.766 522.669 L704.766 532.574 L704.766 542.478 L704.766 552.383 L704.766 562.288 L704.766 572.192 L704.766 582.097 
  L704.766 592.002 L694.861 601.906 L684.956 601.906 L675.052 601.906 L665.147 601.906 L655.242 592.002 L655.242 592.002 L645.338 582.097 L645.338 582.097 L635.433 572.192 
  L635.433 572.192 L625.528 572.192 L615.624 572.192 L605.719 572.192 L595.814 572.192 L585.91 572.192 L576.005 572.192 L576.005 572.192 L566.1 582.097 L566.1 582.097 
  L556.196 592.002 L556.196 592.002 L556.196 601.906 L556.196 611.811 L556.196 621.716 L556.196 631.62 L556.196 641.525 L556.196 641.525 L566.1 641.525 L576.005 651.43 
  L576.005 651.43 L585.91 661.334 L585.91 661.334 L595.814 661.334 L605.719 671.239 L605.719 671.239 L615.624 681.144 L615.624 681.144 L625.528 681.144 L635.433 691.048 
  L635.433 691.048 L645.338 691.048 L655.242 700.953 L655.242 700.953 L665.147 710.858 L665.147 720.763 L665.147 730.667 L665.147 730.667 L675.052 740.572 L675.052 740.572 
  L684.956 750.477 L684.956 750.477 L694.861 760.381 L694.861 760.381 L704.766 770.286 L704.766 780.191 L704.766 790.095 L704.766 800 L704.766 809.905 L704.766 819.809 
  L694.861 829.714 L694.861 829.714 L694.861 839.619 L694.861 849.523 L694.861 859.428 L694.861 869.333 L694.861 879.237 L684.956 889.142 L684.956 889.142 L684.956 899.047 
  L684.956 908.952 L675.052 918.856 L675.052 918.856 L675.052 928.761 L665.147 938.666 L665.147 938.666 L665.147 948.57 L655.242 958.475 L655.242 958.475 L655.242 968.38 
  L645.338 978.284 L635.433 978.284 L625.528 978.284 L615.624 978.284 L605.719 968.38 L605.719 968.38 L595.814 968.38 L585.91 968.38 L576.005 968.38 L566.1 968.38 
  L556.196 968.38 L546.291 958.475 L546.291 958.475 L536.386 958.475 L526.482 958.475 L516.577 958.475 L506.672 958.475 L496.768 958.475 L486.863 958.475 L476.958 948.57 
  L476.958 948.57 L467.053 948.57 L457.149 948.57 L447.244 948.57 L437.339 948.57 L427.435 948.57 L417.53 938.666 L417.53 938.666 L407.625 938.666 L397.721 938.666 
  L387.816 938.666 L377.911 928.761 L377.911 928.761 L368.007 918.856 L368.007 918.856 L358.102 908.952 L358.102 908.952 L348.197 908.952 L338.293 908.952 L338.293 908.952 
  L328.388 918.856 L318.483 918.856 L318.483 918.856 L308.579 928.761 L298.674 928.761 L288.769 928.761 L288.769 928.761 L278.864 938.666 L278.864 938.666 L278.864 948.57 
  L278.864 958.475 L278.864 968.38 L278.864 978.284 L278.864 988.189 L278.864 998.094 L278.864 1008 L278.864 1017.9 L278.864 1027.81 L278.864 1037.71 L278.864 1047.62 
  L278.864 1057.52 L278.864 1067.43 L278.864 1077.33 L278.864 1087.24 L278.864 1097.14 L278.864 1107.05 L278.864 1116.95 L268.96 1126.85 L268.96 1126.85 L268.96 1136.76 
  L259.055 1146.66 L259.055 1146.66 L259.055 1156.57 L249.15 1166.47 L249.15 1166.47 L249.15 1176.38 L249.15 1186.28 L239.246 1196.19 L239.246 1196.19 L239.246 1206.09 
  L229.341 1216 L229.341 1216 L229.341 1225.9 L219.436 1235.81 L219.436 1235.81 L219.436 1245.71 L209.532 1255.62 L209.532 1255.62 L209.532 1265.52 L209.532 1275.42 
  L209.532 1285.33 L209.532 1295.23 L209.532 1295.23 L219.436 1305.14 L219.436 1315.04 L219.436 1324.95 L219.436 1334.85 L219.436 1344.76 L219.436 1354.66 L209.532 1364.57 
  L209.532 1364.57 L209.532 1374.47 L209.532 1384.38 L209.532 1394.28 L209.532 1394.28 L219.436 1404.19 L219.436 1404.19 L229.341 1404.19 L239.246 1404.19 L249.15 1404.19 
  L259.055 1404.19 L268.96 1404.19 L278.864 1404.19 L288.769 1404.19 L298.674 1404.19 L308.579 1414.09 L308.579 1414.09 L318.483 1414.09 L328.388 1424 L328.388 1424 
  L338.293 1433.9 L338.293 1443.8 L338.293 1443.8 L348.197 1453.71 L348.197 1463.61 L348.197 1473.52 L348.197 1483.42 L348.197 1483.42 L358.102 1493.33 L358.102 1493.33 
  L368.007 1493.33 L377.911 1503.23 L377.911 1503.23 L387.816 1503.23 L397.721 1503.23 L407.625 1503.23 L417.53 1503.23 L417.53 1503.23 L427.435 1493.33 L437.339 1493.33 
  L437.339 1493.33 L447.244 1483.42 L447.244 1483.42 L457.149 1473.52 L467.053 1473.52 L476.958 1473.52 L486.863 1473.52 L496.768 1473.52 L506.672 1473.52 L516.577 1483.42 
  L516.577 1483.42 L526.482 1483.42 L536.386 1483.42 L546.291 1483.42 L556.196 1483.42 L566.1 1483.42 L576.005 1483.42 L576.005 1483.42 L585.91 1473.52 L585.91 1473.52 
  L585.91 1463.61 L595.814 1453.71 L595.814 1453.71 L595.814 1443.8 L605.719 1433.9 L615.624 1433.9 L625.528 1433.9 L635.433 1433.9 L645.338 1433.9 L655.242 1443.8 
  L655.242 1443.8 L665.147 1443.8 L665.147 1443.8 L675.052 1433.9 L675.052 1433.9 L675.052 1424 L675.052 1414.09 L675.052 1404.19 L675.052 1394.28 L675.052 1384.38 
  L684.956 1374.47 L694.861 1374.47 L694.861 1374.47 L704.766 1364.57 L704.766 1364.57 L714.671 1354.66 L714.671 1354.66 L714.671 1344.76 L714.671 1344.76 L704.766 1334.85 
  L704.766 1324.95 L704.766 1315.04 L704.766 1315.04 L694.861 1305.14 L694.861 1295.23 L694.861 1285.33 L704.766 1275.42 L704.766 1275.42 L704.766 1265.52 L714.671 1255.62 
  L714.671 1255.62 L714.671 1245.71 L724.575 1235.81 L724.575 1235.81 L734.48 1225.9 L734.48 1225.9 L734.48 1216 L744.385 1206.09 L744.385 1206.09 L744.385 1196.19 
  L754.289 1186.28 L754.289 1186.28 L754.289 1176.38 L764.194 1166.47 L764.194 1166.47 L774.099 1156.57 L784.003 1156.57 L793.908 1156.57 L803.813 1156.57 L803.813 1156.57 
  L813.717 1146.66 L823.622 1146.66 L833.527 1146.66 L843.431 1146.66 L843.431 1146.66 L853.336 1136.76 L863.241 1136.76 L873.145 1136.76 L883.05 1136.76 L883.05 1136.76 
  L892.955 1126.85 L892.955 1126.85 L892.955 1116.95 L892.955 1107.05 L892.955 1097.14 L892.955 1087.24 L892.955 1077.33 L892.955 1067.43 L892.955 1057.52 L902.86 1047.62 
  L902.86 1047.62 L912.764 1037.71 L912.764 1037.71 L922.669 1027.81 L922.669 1027.81 L932.574 1017.9 L942.478 1017.9 L952.383 1017.9 L962.288 1017.9 L972.192 1017.9 
  L982.097 1017.9 L992.002 1017.9 L1001.91 1017.9 L1011.81 1027.81 L1011.81 1027.81 L1021.72 1037.71 L1021.72 1037.71 L1031.62 1047.62 L1031.62 1047.62 L1041.53 1047.62 
  L1051.43 1047.62 L1061.33 1047.62 L1061.33 1047.62 L1071.24 1037.71 L1071.24 1037.71 L1081.14 1027.81 L1081.14 1027.81 L1091.05 1017.9 L1091.05 1017.9 L1100.95 1008 
  L1110.86 1008 L1110.86 1008 L1120.76 998.094 L1120.76 998.094 L1130.67 988.189 L1130.67 988.189 L1140.57 978.284 L1150.48 978.284 L1150.48 978.284 L1160.38 968.38 
  L1160.38 968.38 L1170.29 958.475 L1180.19 958.475 L1190.1 958.475 L1200 968.38 L1200 968.38 L1209.9 968.38 L1219.81 978.284 L1219.81 978.284 L1229.71 978.284 
  L1239.62 988.189 L1239.62 988.189 L1249.52 998.094 L1249.52 1008 L1249.52 1017.9 L1249.52 1017.9 L1259.43 1027.81 L1259.43 1037.71 L1259.43 1037.71 L1269.33 1047.62 
  L1269.33 1057.52 L1269.33 1067.43 L1269.33 1067.43 L1279.24 1077.33 L1279.24 1087.24 L1279.24 1097.14 L1279.24 1097.14 L1289.14 1107.05 L1289.14 1107.05 L1299.05 1116.95 
  L1299.05 1116.95 L1308.95 1116.95 L1318.86 1126.85 L1318.86 1126.85 L1328.76 1136.76 L1328.76 1136.76 L1338.67 1146.66 L1338.67 1146.66 L1348.57 1156.57 L1348.57 1156.57 
  L1358.47 1156.57 L1368.38 1166.47 L1368.38 1166.47 L1378.28 1176.38 L1378.28 1176.38 L1388.19 1186.28 L1388.19 1186.28 L1398.09 1196.19 L1398.09 1196.19 L1408 1196.19 
  L1417.9 1206.09 L1417.9 1206.09 L1427.81 1216 L1427.81 1216 L1437.71 1225.9 L1437.71 1225.9 L1447.62 1235.81 L1447.62 1235.81 L1457.52 1235.81 L1467.43 1245.71 
  L1467.43 1245.71 L1477.33 1255.62 L1477.33 1255.62 L1487.24 1265.52 L1487.24 1265.52 L1497.14 1275.42 L1497.14 1275.42 L1507.05 1285.33 L1507.05 1285.33 L1516.95 1295.23 
  L1516.95 1295.23 L1526.85 1305.14 L1526.85 1315.04 L1526.85 1324.95 L1526.85 1324.95 L1536.76 1334.85 L1536.76 1344.76 L1536.76 1354.66 L1536.76 1364.57 L1536.76 1374.47 
  L1526.85 1384.38 L1526.85 1384.38 L1526.85 1394.28 L1516.95 1404.19 L1516.95 1404.19 L1516.95 1414.09 L1507.05 1424 L1497.14 1424 L1487.24 1424 L1477.33 1424 
  L1467.43 1424 L1457.52 1424 L1447.62 1424 L1437.71 1424 L1427.81 1424 L1427.81 1424 L1417.9 1433.9 L1408 1424 L1408 1424 L1398.09 1424 
  L1388.19 1424 L1388.19 1424 L1378.28 1433.9 L1378.28 1433.9 L1368.38 1443.8 L1358.47 1443.8 L1358.47 1443.8 L1348.57 1453.71 L1348.57 1453.71 L1348.57 1463.61 
  L1348.57 1463.61 L1358.47 1473.52 L1358.47 1473.52 L1368.38 1473.52 L1378.28 1483.42 L1378.28 1483.42 L1388.19 1483.42 L1398.09 1493.33 L1398.09 1493.33 L1408 1493.33 
  L1417.9 1503.23 L1417.9 1503.23 L1427.81 1503.23 L1437.71 1513.14 L1437.71 1513.14 L1447.62 1513.14 L1457.52 1523.04 L1457.52 1523.04 L1467.43 1523.04 L1477.33 1532.95 
  L1477.33 1532.95  Z
  " fill="#000003" fill-rule="evenodd" fill-opacity="1"/>
<path clip-path="url(#clip332)" d="
M1883.42 1523.04 L1893.33 1523.04 L1903.23 1523.04 L1913.14 1523.04 L1923.04 1523.04 L1923.04 1523.04 L1932.95 1513.14 L1932.95 1513.14 L1932.95 1503.23 L1932.95 1493.33 
  L1932.95 1483.42 L1932.95 1473.52 L1932.95 1463.61 L1932.95 1453.71 L1942.85 1443.8 L1952.76 1443.8 L1952.76 1443.8 L1962.66 1433.9 L1962.66 1433.9 L1962.66 1424 
  L1962.66 1414.09 L1962.66 1414.09 L1952.76 1404.19 L1952.76 1404.19 L1942.85 1394.28 L1942.85 1394.28 L1932.95 1384.38 L1932.95 1384.38 L1923.04 1374.47 L1923.04 1374.47 
  L1913.14 1364.57 L1913.14 1354.66 L1913.14 1344.76 L1913.14 1334.85 L1923.04 1324.95 L1923.04 1324.95 L1923.04 1315.04 L1923.04 1315.04 L1913.14 1305.14 L1913.14 1295.23 
  L1913.14 1295.23 L1903.23 1285.33 L1903.23 1275.42 L1903.23 1275.42 L1893.33 1265.52 L1903.23 1255.62 L1913.14 1255.62 L1923.04 1255.62 L1932.95 1255.62 L1942.85 1265.52 
  L1942.85 1265.52 L1952.76 1265.52 L1952.76 1265.52 L1962.66 1255.62 L1962.66 1255.62 L1972.57 1245.71 L1972.57 1245.71 L1982.47 1235.81 L1992.37 1235.81 L1992.37 1235.81 
  L2002.28 1225.9 L2002.28 1225.9 L2012.18 1216 L2012.18 1216 L2022.09 1206.09 L2031.99 1206.09 L2031.99 1206.09 L2041.9 1196.19 L2041.9 1196.19 L2051.8 1186.28 
  L2051.8 1186.28 L2051.8 1176.38 L2061.71 1166.47 L2061.71 1166.47 L2061.71 1156.57 L2071.61 1146.66 L2071.61 1146.66 L2071.61 1136.76 L2081.52 1126.85 L2086.47 1126.85 
  L2081.52 1121.9 L2076.56 1116.95 L2071.61 1112 L2066.66 1107.05 L2061.71 1102.09 L2056.76 1097.14 L2051.8 1092.19 L2046.85 1087.24 L2041.9 1082.28 L2036.95 1077.33 
  L2031.99 1072.38 L2027.04 1067.43 L2022.09 1062.47 L2017.14 1057.52 L2012.18 1052.57 L2002.28 1052.57 L1997.33 1047.62 L1992.37 1042.66 L1987.42 1037.71 L1982.47 1032.76 
  L1972.57 1032.76 L1962.66 1032.76 L1957.71 1027.81 L1952.76 1022.86 L1942.85 1022.86 L1937.9 1017.9 L1932.95 1012.95 L1923.04 1012.95 L1913.14 1012.95 L1903.23 1012.95 
  L1893.33 1012.95 L1888.38 1008 L1883.42 1003.05 L1873.52 1003.05 L1863.61 1003.05 L1853.71 1003.05 L1843.8 1003.05 L1833.9 1003.05 L1824 1003.05 L1814.09 1003.05 
  L1809.14 1008 L1804.19 1012.95 L1794.28 1012.95 L1784.38 1012.95 L1774.47 1012.95 L1764.57 1012.95 L1759.61 1017.9 L1754.66 1022.86 L1744.76 1022.86 L1734.85 1022.86 
  L1729.9 1027.81 L1724.95 1032.76 L1715.04 1032.76 L1705.14 1032.76 L1700.19 1037.71 L1695.23 1042.66 L1685.33 1042.66 L1680.38 1047.62 L1675.42 1052.57 L1670.47 1057.52 
  L1665.52 1062.47 L1660.57 1067.43 L1655.62 1072.38 L1650.66 1077.33 L1655.62 1087.24 L1655.62 1087.24 L1665.52 1097.14 L1665.52 1097.14 L1675.42 1107.05 L1675.42 1107.05 
  L1685.33 1116.95 L1685.33 1126.85 L1685.33 1126.85 L1695.23 1136.76 L1695.23 1136.76 L1705.14 1146.66 L1705.14 1156.57 L1705.14 1166.47 L1705.14 1176.38 L1705.14 1186.28 
  L1705.14 1196.19 L1705.14 1206.09 L1705.14 1216 L1705.14 1216 L1715.04 1225.9 L1715.04 1235.81 L1715.04 1245.71 L1715.04 1255.62 L1715.04 1265.52 L1715.04 1265.52 
  L1724.95 1275.42 L1724.95 1285.33 L1724.95 1285.33 L1734.85 1295.23 L1734.85 1295.23 L1744.76 1305.14 L1744.76 1315.04 L1744.76 1315.04 L1754.66 1324.95 L1754.66 1324.95 
  L1764.57 1334.85 L1764.57 1344.76 L1764.57 1344.76 L1774.47 1354.66 L1774.47 1354.66 L1784.38 1364.57 L1784.38 1364.57 L1794.28 1374.47 L1794.28 1384.38 L1794.28 1384.38 
  L1804.19 1394.28 L1804.19 1394.28 L1814.09 1404.19 L1814.09 1404.19 L1824 1414.09 L1814.09 1424 L1814.09 1424 L1814.09 1433.9 L1814.09 1443.8 L1814.09 1453.71 
  L1814.09 1463.61 L1814.09 1463.61 L1824 1473.52 L1824 1473.52 L1833.9 1483.42 L1833.9 1493.33 L1833.9 1493.33 L1843.8 1503.23 L1843.8 1503.23 L1853.71 1513.14 
  L1853.71 1513.14 L1863.61 1513.14 L1873.52 1513.14 L1883.42 1523.04 L1883.42 1523.04  Z
  " fill="#fcfea4" fill-rule="evenodd" fill-opacity="1"/>
<polyline clip-path="url(#clip332)" style="stroke:#0000ff; stroke-linecap:butt; stroke-linejoin:round; stroke-width:8; stroke-opacity:1; fill:none" points="
  1477.33,1532.95 1487.24,1532.95 1497.14,1532.95 1507.05,1523.04 1516.95,1513.14 1516.95,1503.23 1516.95,1493.33 
  1507.05,1483.42 1516.95,1473.52 1526.85,1463.61 1536.76,1453.71 1546.66,1443.8 
  1556.57,1433.9 1556.57,1424 1566.47,1414.09 1566.47,1404.19 1576.38,1394.28 1576.38,1384.38 1586.28,1374.47 
  1596.19,1374.47 1606.09,1364.57 1606.09,1354.66 1606.09,1344.76 1606.09,1334.85 1596.19,1324.95 1596.19,1315.04 
  1586.28,1305.14 1576.38,1295.23 1586.28,1285.33 1586.28,1275.42 1586.28,1265.52 1596.19,1255.62 1606.09,1265.52 
  1616,1265.52 1625.9,1275.42 1635.81,1285.33 1645.71,1295.23 1655.62,1295.23 1665.52,1295.23 
  1675.42,1285.33 1675.42,1275.42 1665.52,1265.52 1665.52,1255.62 1655.62,1245.71 
  1645.71,1235.81 1645.71,1225.9 1635.81,1216 1625.9,1216 1616,1206.09 1606.09,1206.09 1596.19,1196.19 
  1586.28,1196.19 1576.38,1186.28 1566.47,1186.28 1556.57,1176.38 1546.66,1166.47 1556.57,1156.57 
  1556.57,1146.66 1546.66,1136.76 1536.76,1136.76 1526.85,1136.76 1516.95,1136.76 1507.05,1126.85 1497.14,1126.85 
  1487.24,1126.85 1477.33,1126.85 1467.43,1116.95 1457.52,1107.05 1447.62,1107.05 1437.71,1097.14 1437.71,1087.24 1437.71,1077.33 
  1437.71,1067.43 1437.71,1057.52 1427.81,1047.62 1427.81,1037.71 1427.81,1027.81 1417.9,1017.9 1408,1008 
  1398.09,998.094 1388.19,988.189 1378.28,988.189 1368.38,978.284 1358.47,968.38 1368.38,958.475 
  1368.38,948.57 1368.38,938.666 1368.38,928.761 1358.47,918.856 1358.47,908.952 1358.47,899.047 1368.38,889.142 
  1378.28,879.237 1388.19,879.237 1398.09,869.333 1408,879.237 1408,889.142 1408,899.047 1417.9,908.952 1417.9,918.856 
  1427.81,918.856 1437.71,918.856 1447.62,908.952 1457.52,908.952 1467.43,918.856 1467.43,928.761 1477.33,938.666 
  1487.24,948.57 1487.24,958.475 1497.14,968.38 1507.05,978.284 1507.05,988.189 1516.95,998.094 
  1526.85,1008 1526.85,1017.9 1536.76,1027.81 1546.66,1027.81 1556.57,1027.81 1566.47,1027.81 1576.38,1027.81 
  1586.28,1027.81 1596.19,1037.71 1606.09,1047.62 1616,1047.62 1625.9,1057.52 1635.81,1067.43 
  1645.71,1077.33 1655.62,1087.24 1665.52,1097.14 1675.42,1107.05 1685.33,1116.95 1685.33,1126.85 
  1695.23,1136.76 1705.14,1146.66 1705.14,1156.57 1705.14,1166.47 1705.14,1176.38 1705.14,1186.28 1705.14,1196.19 1705.14,1206.09 
  1705.14,1216 1715.04,1225.9 1715.04,1235.81 1715.04,1245.71 1715.04,1255.62 1715.04,1265.52 1724.95,1275.42 1724.95,1285.33 
  1734.85,1295.23 1744.76,1305.14 1744.76,1315.04 1754.66,1324.95 1764.57,1334.85 1764.57,1344.76 
  1764.57,1344.76 1774.47,1354.66 1784.38,1364.57 1794.28,1374.47 1794.28,1384.38 1804.19,1394.28 
  1814.09,1404.19 1824,1414.09 1814.09,1424 1814.09,1433.9 1814.09,1443.8 1814.09,1453.71 1814.09,1463.61 
  1824,1473.52 1833.9,1483.42 1833.9,1493.33 1833.9,1493.33 1843.8,1503.23 1843.8,1503.23 1853.71,1513.14 1863.61,1513.14 
  1873.52,1513.14 1883.42,1523.04 1893.33,1523.04 1903.23,1523.04 1913.14,1523.04 1923.04,1523.04 1932.95,1513.14 
  1932.95,1503.23 1932.95,1493.33 1932.95,1483.42 1932.95,1473.52 1932.95,1463.61 1932.95,1453.71 1942.85,1443.8 1952.76,1443.8 1962.66,1433.9 
  1962.66,1424 1962.66,1414.09 1952.76,1404.19 1942.85,1394.28 1932.95,1384.38 
  1923.04,1374.47 1913.14,1364.57 1913.14,1354.66 1913.14,1344.76 1913.14,1334.85 1923.04,1324.95 1923.04,1315.04 
  1913.14,1305.14 1913.14,1295.23 1903.23,1285.33 1903.23,1275.42 1893.33,1265.52 1903.23,1255.62 1913.14,1255.62 1923.04,1255.62 
  1932.95,1255.62 1942.85,1265.52 1952.76,1265.52 1962.66,1255.62 1972.57,1245.71 1982.47,1235.81 
  1992.37,1235.81 2002.28,1225.9 2012.18,1216 2022.09,1206.09 2031.99,1206.09 2041.9,1196.19 
  2051.8,1186.28 2051.8,1176.38 2061.71,1166.47 2061.71,1156.57 2071.61,1146.66 2071.61,1136.76 
  2081.52,1126.85 2091.42,1126.85 2101.33,1116.95 2111.23,1116.95 2121.14,1107.05 2131.04,1107.05 2140.94,1097.14 
  2140.94,1087.24 2131.04,1077.33 2121.14,1067.43 2121.14,1057.52 2121.14,1047.62 2121.14,1037.71 2121.14,1027.81 
  2131.04,1017.9 2131.04,1008 2140.94,998.094 2140.94,988.189 2140.94,978.284 2150.85,968.38 2150.85,958.475 
  2150.85,948.57 2160.75,938.666 2160.75,928.761 2160.75,918.856 2160.75,908.952 2160.75,899.047 2170.66,889.142 2180.56,879.237 
  2190.47,869.333 2190.47,859.428 2190.47,849.523 2180.56,839.619 2170.66,839.619 2160.75,839.619 
  2150.85,839.619 2140.94,839.619 2131.04,829.714 2131.04,819.809 2131.04,809.905 2121.14,800 2121.14,790.095 2121.14,780.191 2121.14,770.286 
  2111.23,760.381 2111.23,750.477 2111.23,740.572 2101.33,730.667 2091.42,720.763 2091.42,710.858 
  2081.52,700.953 2071.61,691.048 2071.61,681.144 2061.71,671.239 2051.8,661.334 2051.8,651.43 
  2041.9,641.525 2031.99,641.525 2022.09,641.525 2012.18,641.525 2002.28,651.43 1992.37,661.334 1982.47,661.334 
  1972.57,671.239 1962.66,671.239 1952.76,681.144 1942.85,681.144 1932.95,681.144 1923.04,681.144 1913.14,681.144 1903.23,681.144 
  1893.33,681.144 1883.42,681.144 1873.52,681.144 1863.61,681.144 1853.71,681.144 1843.8,671.239 1833.9,661.334 1824,651.43 
  1824,641.525 1833.9,631.62 1833.9,621.716 1843.8,611.811 1843.8,601.906 1843.8,592.002 1843.8,582.097 1843.8,572.192 
  1843.8,562.288 1843.8,552.383 1853.71,542.478 1863.61,532.574 1863.61,522.669 1873.52,512.764 1883.42,502.86 
  1883.42,492.955 1883.42,483.05 1883.42,473.145 1883.42,463.241 1873.52,453.336 1873.52,443.431 1873.52,433.527 1873.52,423.622 
  1863.61,413.717 1863.61,403.813 1853.71,393.908 1853.71,384.003 1863.61,374.099 1863.61,364.194 1873.52,354.289 
  1883.42,344.385 1883.42,334.48 1883.42,324.575 1883.42,314.671 1873.52,304.766 1873.52,294.861 
  1863.61,284.956 1863.61,275.052 1853.71,265.147 1853.71,255.242 1843.8,245.338 1833.9,235.433 
  1824,225.528 1814.09,225.528 1804.19,225.528 1794.28,225.528 1784.38,225.528 1774.47,225.528 1764.57,225.528 1754.66,225.528 1744.76,225.528 
  1734.85,225.528 1724.95,225.528 1715.04,225.528 1705.14,235.433 1695.23,235.433 1685.33,235.433 1675.42,235.433 1665.52,235.433 1655.62,235.433 
  1645.71,235.433 1635.81,225.528 1625.9,215.624 1616,205.719 1606.09,205.719 1596.19,205.719 
  1586.28,215.624 1576.38,215.624 1566.47,225.528 1556.57,225.528 1546.66,225.528 1536.76,235.433 1526.85,235.433 1516.95,235.433 
  1507.05,245.338 1497.14,245.338 1487.24,255.242 1477.33,255.242 1467.43,265.147 1457.52,275.052 
  1447.62,284.956 1437.71,284.956 1427.81,275.052 1427.81,265.147 1417.9,255.242 1408,255.242 1398.09,255.242 
  1388.19,245.338 1378.28,235.433 1368.38,235.433 1358.47,235.433 1348.57,245.338 1338.67,245.338 1338.67,245.338 
  1328.76,255.242 1318.86,255.242 1308.95,265.147 1299.05,255.242 1299.05,245.338 1289.14,235.433 1279.24,235.433 
  1269.33,235.433 1259.43,225.528 1249.52,215.624 1249.52,205.719 1249.52,195.814 1249.52,185.91 1249.52,176.005 1249.52,166.1 1259.43,156.196 
  1269.33,146.291 1279.24,136.386 1289.14,126.482 1299.05,116.577 1299.05,106.672 
  1299.05,96.7675 1289.14,86.8628 1279.24,76.9581 1279.24,67.0535 1269.33,57.1488 1259.43,57.1488 
  1249.52,57.1488 1239.62,57.1488 1229.71,57.1488 1219.81,67.0535 1209.9,76.9581 1200,86.8628 1190.1,86.8628 
  1180.19,86.8628 1180.19,96.7675 1180.19,106.672 1180.19,116.577 1180.19,126.482 1180.19,136.386 1180.19,146.291 1180.19,156.196 1180.19,166.1 
  1180.19,176.005 1180.19,185.91 1180.19,195.814 1180.19,205.719 1190.1,215.624 1190.1,225.528 1200,235.433 1200,245.338 
  1200,255.242 1200,265.147 1190.1,275.052 1180.19,284.956 1170.29,284.956 1160.38,284.956 1150.48,284.956 1140.57,284.956 1130.67,284.956 
  1120.76,294.861 1110.86,294.861 1100.95,304.766 1091.05,304.766 1081.14,304.766 1071.24,304.766 1061.33,304.766 1051.43,304.766 
  1041.53,314.671 1031.62,314.671 1021.72,324.575 1021.72,324.575 1021.72,334.48 1011.81,344.385 1011.81,354.289 
  1011.81,364.194 1001.91,374.099 992.002,384.003 982.097,393.908 972.192,403.813 972.192,413.717 
  962.288,423.622 952.383,433.527 942.478,433.527 932.574,443.431 922.669,443.431 912.764,443.431 902.86,443.431 
  892.955,453.336 883.05,453.336 873.145,463.241 863.241,473.145 863.241,483.05 853.336,492.955 
  853.336,502.86 843.431,512.764 833.527,522.669 823.622,532.574 813.717,532.574 803.813,542.478 
  793.908,552.383 784.003,552.383 774.099,552.383 764.194,552.383 754.289,552.383 744.385,552.383 734.48,542.478 724.575,532.574 
  714.671,522.669 704.766,522.669 704.766,532.574 704.766,542.478 704.766,552.383 704.766,562.288 704.766,572.192 704.766,582.097 
  704.766,592.002 694.861,601.906 684.956,601.906 675.052,601.906 665.147,601.906 655.242,592.002 645.338,582.097 635.433,572.192 
  625.528,572.192 615.624,572.192 605.719,572.192 595.814,572.192 585.91,572.192 576.005,572.192 566.1,582.097 
  556.196,592.002 556.196,601.906 556.196,611.811 556.196,621.716 556.196,631.62 556.196,641.525 566.1,641.525 576.005,651.43 
  585.91,661.334 595.814,661.334 605.719,671.239 605.719,671.239 615.624,681.144 625.528,681.144 635.433,691.048 
  645.338,691.048 655.242,700.953 665.147,710.858 665.147,720.763 665.147,730.667 675.052,740.572 
  684.956,750.477 694.861,760.381 704.766,770.286 704.766,780.191 704.766,790.095 704.766,800 704.766,809.905 704.766,819.809 
  694.861,829.714 694.861,839.619 694.861,849.523 694.861,859.428 694.861,869.333 694.861,879.237 684.956,889.142 684.956,899.047 
  684.956,908.952 675.052,918.856 675.052,928.761 665.147,938.666 665.147,948.57 655.242,958.475 655.242,968.38 
  645.338,978.284 635.433,978.284 625.528,978.284 615.624,978.284 605.719,968.38 595.814,968.38 585.91,968.38 576.005,968.38 566.1,968.38 
  556.196,968.38 546.291,958.475 536.386,958.475 526.482,958.475 516.577,958.475 506.672,958.475 496.768,958.475 486.863,958.475 476.958,948.57 
  467.053,948.57 457.149,948.57 447.244,948.57 437.339,948.57 427.435,948.57 417.53,938.666 407.625,938.666 397.721,938.666 
  387.816,938.666 377.911,928.761 368.007,918.856 358.102,908.952 348.197,908.952 338.293,908.952 
  328.388,918.856 318.483,918.856 318.483,918.856 308.579,928.761 298.674,928.761 288.769,928.761 278.864,938.666 278.864,948.57 
  278.864,958.475 278.864,968.38 278.864,978.284 278.864,988.189 278.864,998.094 278.864,1008 278.864,1017.9 278.864,1027.81 278.864,1037.71 278.864,1047.62 
  278.864,1057.52 278.864,1067.43 278.864,1077.33 278.864,1087.24 278.864,1097.14 278.864,1107.05 278.864,1116.95 268.96,1126.85 268.96,1136.76 
  259.055,1146.66 259.055,1156.57 249.15,1166.47 249.15,1176.38 249.15,1186.28 239.246,1196.19 239.246,1206.09 
  229.341,1216 229.341,1225.9 219.436,1235.81 219.436,1245.71 209.532,1255.62 209.532,1265.52 209.532,1275.42 
  209.532,1285.33 209.532,1295.23 219.436,1305.14 219.436,1315.04 219.436,1324.95 219.436,1334.85 219.436,1344.76 219.436,1354.66 209.532,1364.57 
  209.532,1374.47 209.532,1384.38 209.532,1394.28 219.436,1404.19 229.341,1404.19 239.246,1404.19 249.15,1404.19 
  259.055,1404.19 268.96,1404.19 278.864,1404.19 288.769,1404.19 298.674,1404.19 308.579,1414.09 308.579,1414.09 318.483,1414.09 328.388,1424 328.388,1424 
  338.293,1433.9 338.293,1443.8 348.197,1453.71 348.197,1463.61 348.197,1473.52 348.197,1483.42 358.102,1493.33 358.102,1493.33 
  368.007,1493.33 377.911,1503.23 387.816,1503.23 397.721,1503.23 407.625,1503.23 417.53,1503.23 427.435,1493.33 437.339,1493.33 
  437.339,1493.33 447.244,1483.42 457.149,1473.52 467.053,1473.52 476.958,1473.52 486.863,1473.52 496.768,1473.52 506.672,1473.52 516.577,1483.42 
  526.482,1483.42 536.386,1483.42 546.291,1483.42 556.196,1483.42 566.1,1483.42 576.005,1483.42 585.91,1473.52 
  585.91,1463.61 595.814,1453.71 595.814,1443.8 605.719,1433.9 615.624,1433.9 625.528,1433.9 635.433,1433.9 645.338,1433.9 655.242,1443.8 
  665.147,1443.8 675.052,1433.9 675.052,1424 675.052,1414.09 675.052,1404.19 675.052,1394.28 675.052,1384.38 
  684.956,1374.47 694.861,1374.47 704.766,1364.57 714.671,1354.66 714.671,1344.76 704.766,1334.85 
  704.766,1324.95 704.766,1315.04 694.861,1305.14 694.861,1295.23 694.861,1285.33 704.766,1275.42 704.766,1265.52 714.671,1255.62 
  714.671,1245.71 724.575,1235.81 734.48,1225.9 734.48,1216 744.385,1206.09 744.385,1196.19 
  754.289,1186.28 754.289,1176.38 764.194,1166.47 774.099,1156.57 784.003,1156.57 793.908,1156.57 803.813,1156.57 
  813.717,1146.66 823.622,1146.66 833.527,1146.66 843.431,1146.66 853.336,1136.76 863.241,1136.76 873.145,1136.76 883.05,1136.76 
  892.955,1126.85 892.955,1116.95 892.955,1107.05 892.955,1097.14 892.955,1087.24 892.955,1077.33 892.955,1067.43 892.955,1057.52 902.86,1047.62 
  912.764,1037.71 922.669,1027.81 932.574,1017.9 942.478,1017.9 952.383,1017.9 962.288,1017.9 972.192,1017.9 
  982.097,1017.9 992.002,1017.9 1001.91,1017.9 1011.81,1027.81 1021.72,1037.71 1021.72,1037.71 1031.62,1047.62 1041.53,1047.62 
  1051.43,1047.62 1061.33,1047.62 1071.24,1037.71 1081.14,1027.81 1091.05,1017.9 1100.95,1008 
  1110.86,1008 1120.76,998.094 1130.67,988.189 1140.57,978.284 1150.48,978.284 1150.48,978.284 1160.38,968.38 
  1170.29,958.475 1180.19,958.475 1190.1,958.475 1200,968.38 1209.9,968.38 1219.81,978.284 1219.81,978.284 1229.71,978.284 
  1239.62,988.189 1249.52,998.094 1249.52,1008 1249.52,1017.9 1259.43,1027.81 1259.43,1037.71 1269.33,1047.62 
  1269.33,1057.52 1269.33,1067.43 1279.24,1077.33 1279.24,1087.24 1279.24,1097.14 1289.14,1107.05 1299.05,1116.95 
  1308.95,1116.95 1318.86,1126.85 1328.76,1136.76 1338.67,1146.66 1338.67,1146.66 1348.57,1156.57 
  1358.47,1156.57 1368.38,1166.47 1378.28,1176.38 1388.19,1186.28 1398.09,1196.19 1408,1196.19 
  1417.9,1206.09 1427.81,1216 1437.71,1225.9 1447.62,1235.81 1457.52,1235.81 1467.43,1245.71 
  1477.33,1255.62 1487.24,1265.52 1497.14,1275.42 1507.05,1285.33 1516.95,1295.23 
  1526.85,1305.14 1526.85,1315.04 1526.85,1324.95 1536.76,1334.85 1536.76,1344.76 1536.76,1354.66 1536.76,1364.57 1536.76,1374.47 
  1526.85,1384.38 1526.85,1394.28 1516.95,1404.19 1516.95,1414.09 1507.05,1424 1497.14,1424 1487.24,1424 1477.33,1424 
  1467.43,1424 1457.52,1424 1447.62,1424 1437.71,1424 1427.81,1424 1417.9,1433.9 1408,1424 1398.09,1424 
  1388.19,1424 1378.28,1433.9 1368.38,1443.8 1358.47,1443.8 1348.57,1453.71 1348.57,1463.61 
  1358.47,1473.52 1368.38,1473.52 1378.28,1483.42 1388.19,1483.42 1398.09,1493.33 1398.09,1493.33 1408,1493.33 
  1417.9,1503.23 1427.81,1503.23 1437.71,1513.14 1447.62,1513.14 1457.52,1523.04 1467.43,1523.04 1477.33,1532.95 
  
  "/>
<polyline clip-path="url(#clip332)" style="stroke:#0000ff; stroke-linecap:butt; stroke-linejoin:round; stroke-width:8; stroke-opacity:1; fill:none" points="
  1883.42,1523.04 1893.33,1523.04 1903.23,1523.04 1913.14,1523.04 1923.04,1523.04 1932.95,1513.14 1932.95,1503.23 1932.95,1493.33 
  1932.95,1483.42 1932.95,1473.52 1932.95,1463.61 1932.95,1453.71 1942.85,1443.8 1952.76,1443.8 1962.66,1433.9 1962.66,1424 
  1962.66,1414.09 1952.76,1404.19 1942.85,1394.28 1932.95,1384.38 1923.04,1374.47 
  1913.14,1364.57 1913.14,1354.66 1913.14,1344.76 1913.14,1334.85 1923.04,1324.95 1923.04,1315.04 1913.14,1305.14 1913.14,1295.23 
  1903.23,1285.33 1903.23,1275.42 1893.33,1265.52 1903.23,1255.62 1913.14,1255.62 1923.04,1255.62 1932.95,1255.62 1942.85,1265.52 
  1952.76,1265.52 1962.66,1255.62 1972.57,1245.71 1982.47,1235.81 1992.37,1235.81 
  2002.28,1225.9 2012.18,1216 2022.09,1206.09 2031.99,1206.09 2041.9,1196.19 2051.8,1186.28 
  2051.8,1176.38 2061.71,1166.47 2061.71,1156.57 2071.61,1146.66 2071.61,1136.76 2081.52,1126.85 2086.47,1126.85 
  2081.52,1121.9 2076.56,1116.95 2071.61,1112 2066.66,1107.05 2061.71,1102.09 2056.76,1097.14 2051.8,1092.19 2046.85,1087.24 2041.9,1082.28 2036.95,1077.33 
  2031.99,1072.38 2027.04,1067.43 2022.09,1062.47 2017.14,1057.52 2012.18,1052.57 2002.28,1052.57 1997.33,1047.62 1992.37,1042.66 1987.42,1037.71 1982.47,1032.76 
  1972.57,1032.76 1962.66,1032.76 1957.71,1027.81 1952.76,1022.86 1942.85,1022.86 1937.9,1017.9 1932.95,1012.95 1923.04,1012.95 1913.14,1012.95 1903.23,1012.95 
  1893.33,1012.95 1888.38,1008 1883.42,1003.05 1873.52,1003.05 1863.61,1003.05 1853.71,1003.05 1843.8,1003.05 1833.9,1003.05 1824,1003.05 1814.09,1003.05 
  1809.14,1008 1804.19,1012.95 1794.28,1012.95 1784.38,1012.95 1774.47,1012.95 1764.57,1012.95 1759.61,1017.9 1754.66,1022.86 1744.76,1022.86 1734.85,1022.86 
  1729.9,1027.81 1724.95,1032.76 1715.04,1032.76 1705.14,1032.76 1700.19,1037.71 1695.23,1042.66 1685.33,1042.66 1680.38,1047.62 1675.42,1052.57 1670.47,1057.52 
  1665.52,1062.47 1660.57,1067.43 1655.62,1072.38 1650.66,1077.33 1655.62,1087.24 1665.52,1097.14 1675.42,1107.05 
  1685.33,1116.95 1685.33,1126.85 1695.23,1136.76 1705.14,1146.66 1705.14,1156.57 1705.14,1166.47 1705.14,1176.38 1705.14,1186.28 
  1705.14,1196.19 1705.14,1206.09 1705.14,1216 1715.04,1225.9 1715.04,1235.81 1715.04,1245.71 1715.04,1255.62 1715.04,1265.52 
  1724.95,1275.42 1724.95,1285.33 1734.85,1295.23 1744.76,1305.14 1744.76,1315.04 1754.66,1324.95 
  1764.57,1334.85 1764.57,1344.76 1764.57,1344.76 1774.47,1354.66 1784.38,1364.57 1794.28,1374.47 1794.28,1384.38 
  1804.19,1394.28 1814.09,1404.19 1824,1414.09 1814.09,1424 1814.09,1433.9 1814.09,1443.8 1814.09,1453.71 
  1814.09,1463.61 1824,1473.52 1833.9,1483.42 1833.9,1493.33 1833.9,1493.33 1843.8,1503.23 1843.8,1503.23 1853.71,1513.14 
  1863.61,1513.14 1873.52,1513.14 1883.42,1523.04 
  "/>
<path clip-path="url(#clip332)" d="
M1477.33 1532.95 L1487.24 1532.95 L1497.14 1532.95 L1497.14 1532.95 L1507.05 1523.04 L1507.05 1523.04 L1516.95 1513.14 L1516.95 1513.14 L1516.95 1503.23 L1516.95 1493.33 
  L1516.95 1493.33 L1507.05 1483.42 L1516.95 1473.52 L1516.95 1473.52 L1526.85 1463.61 L1526.85 1463.61 L1536.76 1453.71 L1536.76 1453.71 L1546.66 1443.8 L1546.66 1443.8 
  L1556.57 1433.9 L1556.57 1433.9 L1556.57 1424 L1566.47 1414.09 L1566.47 1414.09 L1566.47 1404.19 L1576.38 1394.28 L1576.38 1394.28 L1576.38 1384.38 L1586.28 1374.47 
  L1596.19 1374.47 L1596.19 1374.47 L1606.09 1364.57 L1606.09 1364.57 L1606.09 1354.66 L1606.09 1344.76 L1606.09 1334.85 L1606.09 1334.85 L1596.19 1324.95 L1596.19 1315.04 
  L1596.19 1315.04 L1586.28 1305.14 L1586.28 1305.14 L1576.38 1295.23 L1586.28 1285.33 L1586.28 1285.33 L1586.28 1275.42 L1586.28 1265.52 L1596.19 1255.62 L1606.09 1265.52 
  L1606.09 1265.52 L1616 1265.52 L1625.9 1275.42 L1625.9 1275.42 L1635.81 1285.33 L1635.81 1285.33 L1645.71 1295.23 L1645.71 1295.23 L1655.62 1295.23 L1665.52 1295.23 
  L1665.52 1295.23 L1675.42 1285.33 L1675.42 1285.33 L1675.42 1275.42 L1675.42 1275.42 L1665.52 1265.52 L1665.52 1255.62 L1665.52 1255.62 L1655.62 1245.71 L1655.62 1245.71 
  L1645.71 1235.81 L1645.71 1225.9 L1645.71 1225.9 L1635.81 1216 L1635.81 1216 L1625.9 1216 L1616 1206.09 L1616 1206.09 L1606.09 1206.09 L1596.19 1196.19 
  L1596.19 1196.19 L1586.28 1196.19 L1576.38 1186.28 L1576.38 1186.28 L1566.47 1186.28 L1556.57 1176.38 L1556.57 1176.38 L1546.66 1166.47 L1556.57 1156.57 L1556.57 1156.57 
  L1556.57 1146.66 L1556.57 1146.66 L1546.66 1136.76 L1546.66 1136.76 L1536.76 1136.76 L1526.85 1136.76 L1516.95 1136.76 L1507.05 1126.85 L1507.05 1126.85 L1497.14 1126.85 
  L1487.24 1126.85 L1477.33 1126.85 L1467.43 1116.95 L1467.43 1116.95 L1457.52 1107.05 L1457.52 1107.05 L1447.62 1107.05 L1437.71 1097.14 L1437.71 1087.24 L1437.71 1077.33 
  L1437.71 1067.43 L1437.71 1057.52 L1437.71 1057.52 L1427.81 1047.62 L1427.81 1037.71 L1427.81 1027.81 L1427.81 1027.81 L1417.9 1017.9 L1417.9 1017.9 L1408 1008 
  L1408 1008 L1398.09 998.094 L1398.09 998.094 L1388.19 988.189 L1388.19 988.189 L1378.28 988.189 L1368.38 978.284 L1368.38 978.284 L1358.47 968.38 L1368.38 958.475 
  L1368.38 958.475 L1368.38 948.57 L1368.38 938.666 L1368.38 928.761 L1368.38 928.761 L1358.47 918.856 L1358.47 908.952 L1358.47 899.047 L1368.38 889.142 L1368.38 889.142 
  L1378.28 879.237 L1388.19 879.237 L1388.19 879.237 L1398.09 869.333 L1408 879.237 L1408 889.142 L1408 899.047 L1408 899.047 L1417.9 908.952 L1417.9 918.856 
  L1417.9 918.856 L1427.81 918.856 L1437.71 918.856 L1437.71 918.856 L1447.62 908.952 L1457.52 908.952 L1467.43 918.856 L1467.43 928.761 L1467.43 928.761 L1477.33 938.666 
  L1477.33 938.666 L1487.24 948.57 L1487.24 958.475 L1487.24 958.475 L1497.14 968.38 L1497.14 968.38 L1507.05 978.284 L1507.05 988.189 L1507.05 988.189 L1516.95 998.094 
  L1516.95 998.094 L1526.85 1008 L1526.85 1017.9 L1526.85 1017.9 L1536.76 1027.81 L1536.76 1027.81 L1546.66 1027.81 L1556.57 1027.81 L1566.47 1027.81 L1576.38 1027.81 
  L1586.28 1027.81 L1596.19 1037.71 L1596.19 1037.71 L1606.09 1047.62 L1606.09 1047.62 L1616 1047.62 L1625.9 1057.52 L1625.9 1057.52 L1635.81 1067.43 L1635.81 1067.43 
  L1645.71 1077.33 L1645.71 1077.33 L1655.62 1087.24 L1655.62 1087.24 L1665.52 1097.14 L1665.52 1097.14 L1675.42 1107.05 L1675.42 1107.05 L1685.33 1116.95 L1685.33 1126.85 
  L1685.33 1126.85 L1695.23 1136.76 L1695.23 1136.76 L1705.14 1146.66 L1705.14 1156.57 L1705.14 1166.47 L1705.14 1176.38 L1705.14 1186.28 L1705.14 1196.19 L1705.14 1206.09 
  L1705.14 1216 L1705.14 1216 L1715.04 1225.9 L1715.04 1235.81 L1715.04 1245.71 L1715.04 1255.62 L1715.04 1265.52 L1715.04 1265.52 L1724.95 1275.42 L1724.95 1285.33 
  L1724.95 1285.33 L1734.85 1295.23 L1734.85 1295.23 L1744.76 1305.14 L1744.76 1315.04 L1744.76 1315.04 L1754.66 1324.95 L1754.66 1324.95 L1764.57 1334.85 L1764.57 1344.76 
  L1764.57 1344.76 L1774.47 1354.66 L1774.47 1354.66 L1784.38 1364.57 L1784.38 1364.57 L1794.28 1374.47 L1794.28 1384.38 L1794.28 1384.38 L1804.19 1394.28 L1804.19 1394.28 
  L1814.09 1404.19 L1814.09 1404.19 L1824 1414.09 L1814.09 1424 L1814.09 1424 L1814.09 1433.9 L1814.09 1443.8 L1814.09 1453.71 L1814.09 1463.61 L1814.09 1463.61 
  L1824 1473.52 L1824 1473.52 L1833.9 1483.42 L1833.9 1493.33 L1833.9 1493.33 L1843.8 1503.23 L1843.8 1503.23 L1853.71 1513.14 L1853.71 1513.14 L1863.61 1513.14 
  L1873.52 1513.14 L1883.42 1523.04 L1883.42 1523.04 L1893.33 1523.04 L1903.23 1523.04 L1913.14 1523.04 L1923.04 1523.04 L1923.04 1523.04 L1932.95 1513.14 L1932.95 1513.14 
  L1932.95 1503.23 L1932.95 1493.33 L1932.95 1483.42 L1932.95 1473.52 L1932.95 1463.61 L1932.95 1453.71 L1942.85 1443.8 L1952.76 1443.8 L1952.76 1443.8 L1962.66 1433.9 
  L1962.66 1433.9 L1962.66 1424 L1962.66 1414.09 L1962.66 1414.09 L1952.76 1404.19 L1952.76 1404.19 L1942.85 1394.28 L1942.85 1394.28 L1932.95 1384.38 L1932.95 1384.38 
  L1923.04 1374.47 L1923.04 1374.47 L1913.14 1364.57 L1913.14 1354.66 L1913.14 1344.76 L1913.14 1334.85 L1923.04 1324.95 L1923.04 1324.95 L1923.04 1315.04 L1923.04 1315.04 
  L1913.14 1305.14 L1913.14 1295.23 L1913.14 1295.23 L1903.23 1285.33 L1903.23 1275.42 L1903.23 1275.42 L1893.33 1265.52 L1903.23 1255.62 L1913.14 1255.62 L1923.04 1255.62 
  L1932.95 1255.62 L1942.85 1265.52 L1942.85 1265.52 L1952.76 1265.52 L1952.76 1265.52 L1962.66 1255.62 L1962.66 1255.62 L1972.57 1245.71 L1972.57 1245.71 L1982.47 1235.81 
  L1992.37 1235.81 L1992.37 1235.81 L2002.28 1225.9 L2002.28 1225.9 L2012.18 1216 L2012.18 1216 L2022.09 1206.09 L2031.99 1206.09 L2031.99 1206.09 L2041.9 1196.19 
  L2041.9 1196.19 L2051.8 1186.28 L2051.8 1186.28 L2051.8 1176.38 L2061.71 1166.47 L2061.71 1166.47 L2061.71 1156.57 L2071.61 1146.66 L2071.61 1146.66 L2071.61 1136.76 
  L2081.52 1126.85 L2091.42 1126.85 L2091.42 1126.85 L2101.33 1116.95 L2111.23 1116.95 L2111.23 1116.95 L2121.14 1107.05 L2131.04 1107.05 L2131.04 1107.05 L2140.94 1097.14 
  L2140.94 1097.14 L2140.94 1087.24 L2140.94 1087.24 L2131.04 1077.33 L2131.04 1077.33 L2121.14 1067.43 L2121.14 1057.52 L2121.14 1047.62 L2121.14 1037.71 L2121.14 1027.81 
  L2131.04 1017.9 L2131.04 1017.9 L2131.04 1008 L2140.94 998.094 L2140.94 998.094 L2140.94 988.189 L2140.94 978.284 L2150.85 968.38 L2150.85 968.38 L2150.85 958.475 
  L2150.85 948.57 L2160.75 938.666 L2160.75 938.666 L2160.75 928.761 L2160.75 918.856 L2160.75 908.952 L2160.75 899.047 L2170.66 889.142 L2170.66 889.142 L2180.56 879.237 
  L2180.56 879.237 L2190.47 869.333 L2190.47 869.333 L2190.47 859.428 L2190.47 849.523 L2190.47 849.523 L2180.56 839.619 L2180.56 839.619 L2170.66 839.619 L2160.75 839.619 
  L2150.85 839.619 L2140.94 839.619 L2131.04 829.714 L2131.04 819.809 L2131.04 809.905 L2131.04 809.905 L2121.14 800 L2121.14 790.095 L2121.14 780.191 L2121.14 770.286 
  L2121.14 770.286 L2111.23 760.381 L2111.23 750.477 L2111.23 740.572 L2111.23 740.572 L2101.33 730.667 L2101.33 730.667 L2091.42 720.763 L2091.42 710.858 L2091.42 710.858 
  L2081.52 700.953 L2081.52 700.953 L2071.61 691.048 L2071.61 681.144 L2071.61 681.144 L2061.71 671.239 L2061.71 671.239 L2051.8 661.334 L2051.8 651.43 L2051.8 651.43 
  L2041.9 641.525 L2041.9 641.525 L2031.99 641.525 L2022.09 641.525 L2012.18 641.525 L2012.18 641.525 L2002.28 651.43 L2002.28 651.43 L1992.37 661.334 L1982.47 661.334 
  L1982.47 661.334 L1972.57 671.239 L1962.66 671.239 L1962.66 671.239 L1952.76 681.144 L1942.85 681.144 L1932.95 681.144 L1923.04 681.144 L1913.14 681.144 L1903.23 681.144 
  L1893.33 681.144 L1883.42 681.144 L1873.52 681.144 L1863.61 681.144 L1853.71 681.144 L1843.8 671.239 L1843.8 671.239 L1833.9 661.334 L1833.9 661.334 L1824 651.43 
  L1824 641.525 L1833.9 631.62 L1833.9 631.62 L1833.9 621.716 L1843.8 611.811 L1843.8 611.811 L1843.8 601.906 L1843.8 592.002 L1843.8 582.097 L1843.8 572.192 
  L1843.8 562.288 L1843.8 552.383 L1853.71 542.478 L1853.71 542.478 L1863.61 532.574 L1863.61 532.574 L1863.61 522.669 L1873.52 512.764 L1873.52 512.764 L1883.42 502.86 
  L1883.42 502.86 L1883.42 492.955 L1883.42 483.05 L1883.42 473.145 L1883.42 463.241 L1883.42 463.241 L1873.52 453.336 L1873.52 443.431 L1873.52 433.527 L1873.52 423.622 
  L1873.52 423.622 L1863.61 413.717 L1863.61 403.813 L1863.61 403.813 L1853.71 393.908 L1853.71 384.003 L1863.61 374.099 L1863.61 374.099 L1863.61 364.194 L1873.52 354.289 
  L1873.52 354.289 L1883.42 344.385 L1883.42 344.385 L1883.42 334.48 L1883.42 324.575 L1883.42 314.671 L1883.42 314.671 L1873.52 304.766 L1873.52 294.861 L1873.52 294.861 
  L1863.61 284.956 L1863.61 275.052 L1863.61 275.052 L1853.71 265.147 L1853.71 255.242 L1853.71 255.242 L1843.8 245.338 L1843.8 245.338 L1833.9 235.433 L1833.9 235.433 
  L1824 225.528 L1824 225.528 L1814.09 225.528 L1804.19 225.528 L1794.28 225.528 L1784.38 225.528 L1774.47 225.528 L1764.57 225.528 L1754.66 225.528 L1744.76 225.528 
  L1734.85 225.528 L1724.95 225.528 L1715.04 225.528 L1715.04 225.528 L1705.14 235.433 L1695.23 235.433 L1685.33 235.433 L1675.42 235.433 L1665.52 235.433 L1655.62 235.433 
  L1645.71 235.433 L1635.81 225.528 L1635.81 225.528 L1625.9 215.624 L1625.9 215.624 L1616 205.719 L1616 205.719 L1606.09 205.719 L1596.19 205.719 L1596.19 205.719 
  L1586.28 215.624 L1576.38 215.624 L1576.38 215.624 L1566.47 225.528 L1556.57 225.528 L1546.66 225.528 L1546.66 225.528 L1536.76 235.433 L1526.85 235.433 L1516.95 235.433 
  L1516.95 235.433 L1507.05 245.338 L1497.14 245.338 L1497.14 245.338 L1487.24 255.242 L1477.33 255.242 L1477.33 255.242 L1467.43 265.147 L1467.43 265.147 L1457.52 275.052 
  L1457.52 275.052 L1447.62 284.956 L1437.71 284.956 L1427.81 275.052 L1427.81 265.147 L1427.81 265.147 L1417.9 255.242 L1417.9 255.242 L1408 255.242 L1398.09 255.242 
  L1388.19 245.338 L1388.19 245.338 L1378.28 235.433 L1378.28 235.433 L1368.38 235.433 L1358.47 235.433 L1358.47 235.433 L1348.57 245.338 L1338.67 245.338 L1338.67 245.338 
  L1328.76 255.242 L1318.86 255.242 L1318.86 255.242 L1308.95 265.147 L1299.05 255.242 L1299.05 245.338 L1299.05 245.338 L1289.14 235.433 L1289.14 235.433 L1279.24 235.433 
  L1269.33 235.433 L1259.43 225.528 L1259.43 225.528 L1249.52 215.624 L1249.52 205.719 L1249.52 195.814 L1249.52 185.91 L1249.52 176.005 L1249.52 166.1 L1259.43 156.196 
  L1259.43 156.196 L1269.33 146.291 L1269.33 146.291 L1279.24 136.386 L1279.24 136.386 L1289.14 126.482 L1289.14 126.482 L1299.05 116.577 L1299.05 116.577 L1299.05 106.672 
  L1299.05 96.7675 L1299.05 96.7675 L1289.14 86.8628 L1289.14 86.8628 L1279.24 76.9581 L1279.24 67.0535 L1279.24 67.0535 L1269.33 57.1488 L1269.33 57.1488 L1259.43 57.1488 
  L1249.52 57.1488 L1239.62 57.1488 L1229.71 57.1488 L1229.71 57.1488 L1219.81 67.0535 L1219.81 67.0535 L1209.9 76.9581 L1209.9 76.9581 L1200 86.8628 L1190.1 86.8628 
  L1180.19 86.8628 L1180.19 86.8628 L1180.19 96.7675 L1180.19 106.672 L1180.19 116.577 L1180.19 126.482 L1180.19 136.386 L1180.19 146.291 L1180.19 156.196 L1180.19 166.1 
  L1180.19 176.005 L1180.19 185.91 L1180.19 195.814 L1180.19 205.719 L1180.19 205.719 L1190.1 215.624 L1190.1 225.528 L1190.1 225.528 L1200 235.433 L1200 245.338 
  L1200 255.242 L1200 265.147 L1190.1 275.052 L1190.1 275.052 L1180.19 284.956 L1170.29 284.956 L1160.38 284.956 L1150.48 284.956 L1140.57 284.956 L1130.67 284.956 
  L1130.67 284.956 L1120.76 294.861 L1110.86 294.861 L1110.86 294.861 L1100.95 304.766 L1091.05 304.766 L1081.14 304.766 L1071.24 304.766 L1061.33 304.766 L1051.43 304.766 
  L1051.43 304.766 L1041.53 314.671 L1031.62 314.671 L1031.62 314.671 L1021.72 324.575 L1021.72 324.575 L1021.72 334.48 L1011.81 344.385 L1011.81 344.385 L1011.81 354.289 
  L1011.81 364.194 L1001.91 374.099 L1001.91 374.099 L992.002 384.003 L992.002 384.003 L982.097 393.908 L982.097 393.908 L972.192 403.813 L972.192 403.813 L972.192 413.717 
  L962.288 423.622 L962.288 423.622 L952.383 433.527 L942.478 433.527 L942.478 433.527 L932.574 443.431 L922.669 443.431 L912.764 443.431 L902.86 443.431 L902.86 443.431 
  L892.955 453.336 L883.05 453.336 L883.05 453.336 L873.145 463.241 L873.145 463.241 L863.241 473.145 L863.241 473.145 L863.241 483.05 L853.336 492.955 L853.336 492.955 
  L853.336 502.86 L843.431 512.764 L843.431 512.764 L833.527 522.669 L833.527 522.669 L823.622 532.574 L813.717 532.574 L813.717 532.574 L803.813 542.478 L803.813 542.478 
  L793.908 552.383 L784.003 552.383 L774.099 552.383 L764.194 552.383 L754.289 552.383 L744.385 552.383 L734.48 542.478 L734.48 542.478 L724.575 532.574 L724.575 532.574 
  L714.671 522.669 L714.671 522.669 L704.766 522.669 L704.766 522.669 L704.766 532.574 L704.766 542.478 L704.766 552.383 L704.766 562.288 L704.766 572.192 L704.766 582.097 
  L704.766 592.002 L694.861 601.906 L684.956 601.906 L675.052 601.906 L665.147 601.906 L655.242 592.002 L655.242 592.002 L645.338 582.097 L645.338 582.097 L635.433 572.192 
  L635.433 572.192 L625.528 572.192 L615.624 572.192 L605.719 572.192 L595.814 572.192 L585.91 572.192 L576.005 572.192 L576.005 572.192 L566.1 582.097 L566.1 582.097 
  L556.196 592.002 L556.196 592.002 L556.196 601.906 L556.196 611.811 L556.196 621.716 L556.196 631.62 L556.196 641.525 L556.196 641.525 L566.1 641.525 L576.005 651.43 
  L576.005 651.43 L585.91 661.334 L585.91 661.334 L595.814 661.334 L605.719 671.239 L605.719 671.239 L615.624 681.144 L615.624 681.144 L625.528 681.144 L635.433 691.048 
  L635.433 691.048 L645.338 691.048 L655.242 700.953 L655.242 700.953 L665.147 710.858 L665.147 720.763 L665.147 730.667 L665.147 730.667 L675.052 740.572 L675.052 740.572 
  L684.956 750.477 L684.956 750.477 L694.861 760.381 L694.861 760.381 L704.766 770.286 L704.766 780.191 L704.766 790.095 L704.766 800 L704.766 809.905 L704.766 819.809 
  L694.861 829.714 L694.861 829.714 L694.861 839.619 L694.861 849.523 L694.861 859.428 L694.861 869.333 L694.861 879.237 L684.956 889.142 L684.956 889.142 L684.956 899.047 
  L684.956 908.952 L675.052 918.856 L675.052 918.856 L675.052 928.761 L665.147 938.666 L665.147 938.666 L665.147 948.57 L655.242 958.475 L655.242 958.475 L655.242 968.38 
  L645.338 978.284 L635.433 978.284 L625.528 978.284 L615.624 978.284 L605.719 968.38 L605.719 968.38 L595.814 968.38 L585.91 968.38 L576.005 968.38 L566.1 968.38 
  L556.196 968.38 L546.291 958.475 L546.291 958.475 L536.386 958.475 L526.482 958.475 L516.577 958.475 L506.672 958.475 L496.768 958.475 L486.863 958.475 L476.958 948.57 
  L476.958 948.57 L467.053 948.57 L457.149 948.57 L447.244 948.57 L437.339 948.57 L427.435 948.57 L417.53 938.666 L417.53 938.666 L407.625 938.666 L397.721 938.666 
  L387.816 938.666 L377.911 928.761 L377.911 928.761 L368.007 918.856 L368.007 918.856 L358.102 908.952 L358.102 908.952 L348.197 908.952 L338.293 908.952 L338.293 908.952 
  L328.388 918.856 L318.483 918.856 L318.483 918.856 L308.579 928.761 L298.674 928.761 L288.769 928.761 L288.769 928.761 L278.864 938.666 L278.864 938.666 L278.864 948.57 
  L278.864 958.475 L278.864 968.38 L278.864 978.284 L278.864 988.189 L278.864 998.094 L278.864 1008 L278.864 1017.9 L278.864 1027.81 L278.864 1037.71 L278.864 1047.62 
  L278.864 1057.52 L278.864 1067.43 L278.864 1077.33 L278.864 1087.24 L278.864 1097.14 L278.864 1107.05 L278.864 1116.95 L268.96 1126.85 L268.96 1126.85 L268.96 1136.76 
  L259.055 1146.66 L259.055 1146.66 L259.055 1156.57 L249.15 1166.47 L249.15 1166.47 L249.15 1176.38 L249.15 1186.28 L239.246 1196.19 L239.246 1196.19 L239.246 1206.09 
  L229.341 1216 L229.341 1216 L229.341 1225.9 L219.436 1235.81 L219.436 1235.81 L219.436 1245.71 L209.532 1255.62 L209.532 1255.62 L209.532 1265.52 L209.532 1275.42 
  L209.532 1285.33 L209.532 1295.23 L209.532 1295.23 L219.436 1305.14 L219.436 1315.04 L219.436 1324.95 L219.436 1334.85 L219.436 1344.76 L219.436 1354.66 L209.532 1364.57 
  L209.532 1364.57 L209.532 1374.47 L209.532 1384.38 L209.532 1394.28 L209.532 1394.28 L219.436 1404.19 L219.436 1404.19 L229.341 1404.19 L239.246 1404.19 L249.15 1404.19 
  L259.055 1404.19 L268.96 1404.19 L278.864 1404.19 L288.769 1404.19 L298.674 1404.19 L308.579 1414.09 L308.579 1414.09 L318.483 1414.09 L328.388 1424 L328.388 1424 
  L338.293 1433.9 L338.293 1443.8 L338.293 1443.8 L348.197 1453.71 L348.197 1463.61 L348.197 1473.52 L348.197 1483.42 L348.197 1483.42 L358.102 1493.33 L358.102 1493.33 
  L368.007 1493.33 L377.911 1503.23 L377.911 1503.23 L387.816 1503.23 L397.721 1503.23 L407.625 1503.23 L417.53 1503.23 L417.53 1503.23 L427.435 1493.33 L437.339 1493.33 
  L437.339 1493.33 L447.244 1483.42 L447.244 1483.42 L457.149 1473.52 L467.053 1473.52 L476.958 1473.52 L486.863 1473.52 L496.768 1473.52 L506.672 1473.52 L516.577 1483.42 
  L516.577 1483.42 L526.482 1483.42 L536.386 1483.42 L546.291 1483.42 L556.196 1483.42 L566.1 1483.42 L576.005 1483.42 L576.005 1483.42 L585.91 1473.52 L585.91 1473.52 
  L585.91 1463.61 L595.814 1453.71 L595.814 1453.71 L595.814 1443.8 L605.719 1433.9 L615.624 1433.9 L625.528 1433.9 L635.433 1433.9 L645.338 1433.9 L655.242 1443.8 
  L655.242 1443.8 L665.147 1443.8 L665.147 1443.8 L675.052 1433.9 L675.052 1433.9 L675.052 1424 L675.052 1414.09 L675.052 1404.19 L675.052 1394.28 L675.052 1384.38 
  L684.956 1374.47 L694.861 1374.47 L694.861 1374.47 L704.766 1364.57 L704.766 1364.57 L714.671 1354.66 L714.671 1354.66 L714.671 1344.76 L714.671 1344.76 L704.766 1334.85 
  L704.766 1324.95 L704.766 1315.04 L704.766 1315.04 L694.861 1305.14 L694.861 1295.23 L694.861 1285.33 L704.766 1275.42 L704.766 1275.42 L704.766 1265.52 L714.671 1255.62 
  L714.671 1255.62 L714.671 1245.71 L724.575 1235.81 L724.575 1235.81 L734.48 1225.9 L734.48 1225.9 L734.48 1216 L744.385 1206.09 L744.385 1206.09 L744.385 1196.19 
  L754.289 1186.28 L754.289 1186.28 L754.289 1176.38 L764.194 1166.47 L764.194 1166.47 L774.099 1156.57 L784.003 1156.57 L793.908 1156.57 L803.813 1156.57 L803.813 1156.57 
  L813.717 1146.66 L823.622 1146.66 L833.527 1146.66 L843.431 1146.66 L843.431 1146.66 L853.336 1136.76 L863.241 1136.76 L873.145 1136.76 L883.05 1136.76 L883.05 1136.76 
  L892.955 1126.85 L892.955 1126.85 L892.955 1116.95 L892.955 1107.05 L892.955 1097.14 L892.955 1087.24 L892.955 1077.33 L892.955 1067.43 L892.955 1057.52 L902.86 1047.62 
  L902.86 1047.62 L912.764 1037.71 L912.764 1037.71 L922.669 1027.81 L922.669 1027.81 L932.574 1017.9 L942.478 1017.9 L952.383 1017.9 L962.288 1017.9 L972.192 1017.9 
  L982.097 1017.9 L992.002 1017.9 L1001.91 1017.9 L1011.81 1027.81 L1011.81 1027.81 L1021.72 1037.71 L1021.72 1037.71 L1031.62 1047.62 L1031.62 1047.62 L1041.53 1047.62 
  L1051.43 1047.62 L1061.33 1047.62 L1061.33 1047.62 L1071.24 1037.71 L1071.24 1037.71 L1081.14 1027.81 L1081.14 1027.81 L1091.05 1017.9 L1091.05 1017.9 L1100.95 1008 
  L1110.86 1008 L1110.86 1008 L1120.76 998.094 L1120.76 998.094 L1130.67 988.189 L1130.67 988.189 L1140.57 978.284 L1150.48 978.284 L1150.48 978.284 L1160.38 968.38 
  L1160.38 968.38 L1170.29 958.475 L1180.19 958.475 L1190.1 958.475 L1200 968.38 L1200 968.38 L1209.9 968.38 L1219.81 978.284 L1219.81 978.284 L1229.71 978.284 
  L1239.62 988.189 L1239.62 988.189 L1249.52 998.094 L1249.52 1008 L1249.52 1017.9 L1249.52 1017.9 L1259.43 1027.81 L1259.43 1037.71 L1259.43 1037.71 L1269.33 1047.62 
  L1269.33 1057.52 L1269.33 1067.43 L1269.33 1067.43 L1279.24 1077.33 L1279.24 1087.24 L1279.24 1097.14 L1279.24 1097.14 L1289.14 1107.05 L1289.14 1107.05 L1299.05 1116.95 
  L1299.05 1116.95 L1308.95 1116.95 L1318.86 1126.85 L1318.86 1126.85 L1328.76 1136.76 L1328.76 1136.76 L1338.67 1146.66 L1338.67 1146.66 L1348.57 1156.57 L1348.57 1156.57 
  L1358.47 1156.57 L1368.38 1166.47 L1368.38 1166.47 L1378.28 1176.38 L1378.28 1176.38 L1388.19 1186.28 L1388.19 1186.28 L1398.09 1196.19 L1398.09 1196.19 L1408 1196.19 
  L1417.9 1206.09 L1417.9 1206.09 L1427.81 1216 L1427.81 1216 L1437.71 1225.9 L1437.71 1225.9 L1447.62 1235.81 L1447.62 1235.81 L1457.52 1235.81 L1467.43 1245.71 
  L1467.43 1245.71 L1477.33 1255.62 L1477.33 1255.62 L1487.24 1265.52 L1487.24 1265.52 L1497.14 1275.42 L1497.14 1275.42 L1507.05 1285.33 L1507.05 1285.33 L1516.95 1295.23 
  L1516.95 1295.23 L1526.85 1305.14 L1526.85 1315.04 L1526.85 1324.95 L1526.85 1324.95 L1536.76 1334.85 L1536.76 1344.76 L1536.76 1354.66 L1536.76 1364.57 L1536.76 1374.47 
  L1526.85 1384.38 L1526.85 1384.38 L1526.85 1394.28 L1516.95 1404.19 L1516.95 1404.19 L1516.95 1414.09 L1507.05 1424 L1497.14 1424 L1487.24 1424 L1477.33 1424 
  L1467.43 1424 L1457.52 1424 L1447.62 1424 L1437.71 1424 L1427.81 1424 L1427.81 1424 L1417.9 1433.9 L1408 1424 L1408 1424 L1398.09 1424 
  L1388.19 1424 L1388.19 1424 L1378.28 1433.9 L1378.28 1433.9 L1368.38 1443.8 L1358.47 1443.8 L1358.47 1443.8 L1348.57 1453.71 L1348.57 1453.71 L1348.57 1463.61 
  L1348.57 1463.61 L1358.47 1473.52 L1358.47 1473.52 L1368.38 1473.52 L1378.28 1483.42 L1378.28 1483.42 L1388.19 1483.42 L1398.09 1493.33 L1398.09 1493.33 L1408 1493.33 
  L1417.9 1503.23 L1417.9 1503.23 L1427.81 1503.23 L1437.71 1513.14 L1437.71 1513.14 L1447.62 1513.14 L1457.52 1523.04 L1457.52 1523.04 L1467.43 1523.04 L1477.33 1532.95 
  L1477.33 1532.95  Z
  " fill="#000003" fill-rule="evenodd" fill-opacity="1"/>
<path clip-path="url(#clip332)" d="
M1883.42 1523.04 L1893.33 1523.04 L1903.23 1523.04 L1913.14 1523.04 L1923.04 1523.04 L1923.04 1523.04 L1932.95 1513.14 L1932.95 1513.14 L1932.95 1503.23 L1932.95 1493.33 
  L1932.95 1483.42 L1932.95 1473.52 L1932.95 1463.61 L1932.95 1453.71 L1942.85 1443.8 L1952.76 1443.8 L1952.76 1443.8 L1962.66 1433.9 L1962.66 1433.9 L1962.66 1424 
  L1962.66 1414.09 L1962.66 1414.09 L1952.76 1404.19 L1952.76 1404.19 L1942.85 1394.28 L1942.85 1394.28 L1932.95 1384.38 L1932.95 1384.38 L1923.04 1374.47 L1923.04 1374.47 
  L1913.14 1364.57 L1913.14 1354.66 L1913.14 1344.76 L1913.14 1334.85 L1923.04 1324.95 L1923.04 1324.95 L1923.04 1315.04 L1923.04 1315.04 L1913.14 1305.14 L1913.14 1295.23 
  L1913.14 1295.23 L1903.23 1285.33 L1903.23 1275.42 L1903.23 1275.42 L1893.33 1265.52 L1903.23 1255.62 L1913.14 1255.62 L1923.04 1255.62 L1932.95 1255.62 L1942.85 1265.52 
  L1942.85 1265.52 L1952.76 1265.52 L1952.76 1265.52 L1962.66 1255.62 L1962.66 1255.62 L1972.57 1245.71 L1972.57 1245.71 L1982.47 1235.81 L1992.37 1235.81 L1992.37 1235.81 
  L2002.28 1225.9 L2002.28 1225.9 L2012.18 1216 L2012.18 1216 L2022.09 1206.09 L2031.99 1206.09 L2031.99 1206.09 L2041.9 1196.19 L2041.9 1196.19 L2051.8 1186.28 
  L2051.8 1186.28 L2051.8 1176.38 L2061.71 1166.47 L2061.71 1166.47 L2061.71 1156.57 L2066.66 1146.66 L2061.71 1141.71 L2051.8 1141.71 L2046.85 1136.76 L2041.9 1131.81 
  L2036.95 1126.85 L2031.99 1121.9 L2027.04 1116.95 L2022.09 1112 L2017.14 1107.05 L2012.18 1102.09 L2007.23 1097.14 L2002.28 1092.19 L1997.33 1087.24 L1992.37 1082.28 
  L1987.42 1077.33 L1982.47 1072.38 L1972.57 1072.38 L1967.61 1067.43 L1962.66 1062.47 L1957.71 1057.52 L1952.76 1052.57 L1942.85 1052.57 L1937.9 1047.62 L1932.95 1042.66 
  L1923.04 1042.66 L1918.09 1037.71 L1913.14 1032.76 L1903.23 1032.76 L1893.33 1032.76 L1883.42 1032.76 L1878.47 1027.81 L1873.52 1022.86 L1863.61 1022.86 L1853.71 1022.86 
  L1843.8 1022.86 L1833.9 1022.86 L1824 1022.86 L1814.09 1022.86 L1809.14 1027.81 L1804.19 1032.76 L1794.28 1032.76 L1784.38 1032.76 L1774.47 1032.76 L1769.52 1037.71 
  L1764.57 1042.66 L1754.66 1042.66 L1744.76 1042.66 L1734.85 1042.66 L1729.9 1047.62 L1724.95 1052.57 L1715.04 1052.57 L1705.14 1052.57 L1700.19 1057.52 L1695.23 1062.47 
  L1690.28 1067.43 L1685.33 1072.38 L1675.42 1072.38 L1670.47 1077.33 L1665.52 1082.28 L1660.57 1087.24 L1665.52 1097.14 L1665.52 1097.14 L1675.42 1107.05 L1675.42 1107.05 
  L1685.33 1116.95 L1685.33 1126.85 L1685.33 1126.85 L1695.23 1136.76 L1695.23 1136.76 L1705.14 1146.66 L1705.14 1156.57 L1705.14 1166.47 L1705.14 1176.38 L1705.14 1186.28 
  L1705.14 1196.19 L1705.14 1206.09 L1705.14 1216 L1705.14 1216 L1715.04 1225.9 L1715.04 1235.81 L1715.04 1245.71 L1715.04 1255.62 L1715.04 1265.52 L1715.04 1265.52 
  L1724.95 1275.42 L1724.95 1285.33 L1724.95 1285.33 L1734.85 1295.23 L1734.85 1295.23 L1744.76 1305.14 L1744.76 1315.04 L1744.76 1315.04 L1754.66 1324.95 L1754.66 1324.95 
  L1764.57 1334.85 L1764.57 1344.76 L1764.57 1344.76 L1774.47 1354.66 L1774.47 1354.66 L1784.38 1364.57 L1784.38 1364.57 L1794.28 1374.47 L1794.28 1384.38 L1794.28 1384.38 
  L1804.19 1394.28 L1804.19 1394.28 L1814.09 1404.19 L1814.09 1404.19 L1824 1414.09 L1814.09 1424 L1814.09 1424 L1814.09 1433.9 L1814.09 1443.8 L1814.09 1453.71 
  L1814.09 1463.61 L1814.09 1463.61 L1824 1473.52 L1824 1473.52 L1833.9 1483.42 L1833.9 1493.33 L1833.9 1493.33 L1843.8 1503.23 L1843.8 1503.23 L1853.71 1513.14 
  L1853.71 1513.14 L1863.61 1513.14 L1873.52 1513.14 L1883.42 1523.04 L1883.42 1523.04  Z
  " fill="#fcfea4" fill-rule="evenodd" fill-opacity="1"/>
<polyline clip-path="url(#clip332)" style="stroke:#ff0000; stroke-linecap:butt; stroke-linejoin:round; stroke-width:8; stroke-opacity:1; fill:none" points="
  1477.33,1532.95 1487.24,1532.95 1497.14,1532.95 1507.05,1523.04 1516.95,1513.14 1516.95,1503.23 1516.95,1493.33 
  1507.05,1483.42 1516.95,1473.52 1526.85,1463.61 1536.76,1453.71 1546.66,1443.8 
  1556.57,1433.9 1556.57,1424 1566.47,1414.09 1566.47,1404.19 1576.38,1394.28 1576.38,1384.38 1586.28,1374.47 
  1596.19,1374.47 1606.09,1364.57 1606.09,1354.66 1606.09,1344.76 1606.09,1334.85 1596.19,1324.95 1596.19,1315.04 
  1586.28,1305.14 1576.38,1295.23 1586.28,1285.33 1586.28,1275.42 1586.28,1265.52 1596.19,1255.62 1606.09,1265.52 
  1616,1265.52 1625.9,1275.42 1635.81,1285.33 1645.71,1295.23 1655.62,1295.23 1665.52,1295.23 
  1675.42,1285.33 1675.42,1275.42 1665.52,1265.52 1665.52,1255.62 1655.62,1245.71 
  1645.71,1235.81 1645.71,1225.9 1635.81,1216 1625.9,1216 1616,1206.09 1606.09,1206.09 1596.19,1196.19 
  1586.28,1196.19 1576.38,1186.28 1566.47,1186.28 1556.57,1176.38 1546.66,1166.47 1556.57,1156.57 
  1556.57,1146.66 1546.66,1136.76 1536.76,1136.76 1526.85,1136.76 1516.95,1136.76 1507.05,1126.85 1497.14,1126.85 
  1487.24,1126.85 1477.33,1126.85 1467.43,1116.95 1457.52,1107.05 1447.62,1107.05 1437.71,1097.14 1437.71,1087.24 1437.71,1077.33 
  1437.71,1067.43 1437.71,1057.52 1427.81,1047.62 1427.81,1037.71 1427.81,1027.81 1417.9,1017.9 1408,1008 
  1398.09,998.094 1388.19,988.189 1378.28,988.189 1368.38,978.284 1358.47,968.38 1368.38,958.475 
  1368.38,948.57 1368.38,938.666 1368.38,928.761 1358.47,918.856 1358.47,908.952 1358.47,899.047 1368.38,889.142 
  1378.28,879.237 1388.19,879.237 1398.09,869.333 1408,879.237 1408,889.142 1408,899.047 1417.9,908.952 1417.9,918.856 
  1427.81,918.856 1437.71,918.856 1447.62,908.952 1457.52,908.952 1467.43,918.856 1467.43,928.761 1477.33,938.666 
  1487.24,948.57 1487.24,958.475 1497.14,968.38 1507.05,978.284 1507.05,988.189 1516.95,998.094 
  1526.85,1008 1526.85,1017.9 1536.76,1027.81 1546.66,1027.81 1556.57,1027.81 1566.47,1027.81 1576.38,1027.81 
  1586.28,1027.81 1596.19,1037.71 1606.09,1047.62 1616,1047.62 1625.9,1057.52 1635.81,1067.43 
  1645.71,1077.33 1655.62,1087.24 1665.52,1097.14 1675.42,1107.05 1685.33,1116.95 1685.33,1126.85 
  1695.23,1136.76 1705.14,1146.66 1705.14,1156.57 1705.14,1166.47 1705.14,1176.38 1705.14,1186.28 1705.14,1196.19 1705.14,1206.09 
  1705.14,1216 1715.04,1225.9 1715.04,1235.81 1715.04,1245.71 1715.04,1255.62 1715.04,1265.52 1724.95,1275.42 1724.95,1285.33 
  1734.85,1295.23 1744.76,1305.14 1744.76,1315.04 1754.66,1324.95 1764.57,1334.85 1764.57,1344.76 
  1764.57,1344.76 1774.47,1354.66 1784.38,1364.57 1794.28,1374.47 1794.28,1384.38 1804.19,1394.28 
  1814.09,1404.19 1824,1414.09 1814.09,1424 1814.09,1433.9 1814.09,1443.8 1814.09,1453.71 1814.09,1463.61 
  1824,1473.52 1833.9,1483.42 1833.9,1493.33 1833.9,1493.33 1843.8,1503.23 1843.8,1503.23 1853.71,1513.14 1863.61,1513.14 
  1873.52,1513.14 1883.42,1523.04 1893.33,1523.04 1903.23,1523.04 1913.14,1523.04 1923.04,1523.04 1932.95,1513.14 
  1932.95,1503.23 1932.95,1493.33 1932.95,1483.42 1932.95,1473.52 1932.95,1463.61 1932.95,1453.71 1942.85,1443.8 1952.76,1443.8 1962.66,1433.9 
  1962.66,1424 1962.66,1414.09 1952.76,1404.19 1942.85,1394.28 1932.95,1384.38 
  1923.04,1374.47 1913.14,1364.57 1913.14,1354.66 1913.14,1344.76 1913.14,1334.85 1923.04,1324.95 1923.04,1315.04 
  1913.14,1305.14 1913.14,1295.23 1903.23,1285.33 1903.23,1275.42 1893.33,1265.52 1903.23,1255.62 1913.14,1255.62 1923.04,1255.62 
  1932.95,1255.62 1942.85,1265.52 1952.76,1265.52 1962.66,1255.62 1972.57,1245.71 1982.47,1235.81 
  1992.37,1235.81 2002.28,1225.9 2012.18,1216 2022.09,1206.09 2031.99,1206.09 2041.9,1196.19 
  2051.8,1186.28 2051.8,1176.38 2061.71,1166.47 2061.71,1156.57 2071.61,1146.66 2071.61,1136.76 
  2081.52,1126.85 2091.42,1126.85 2101.33,1116.95 2111.23,1116.95 2121.14,1107.05 2131.04,1107.05 2140.94,1097.14 
  2140.94,1087.24 2131.04,1077.33 2121.14,1067.43 2121.14,1057.52 2121.14,1047.62 2121.14,1037.71 2121.14,1027.81 
  2131.04,1017.9 2131.04,1008 2140.94,998.094 2140.94,988.189 2140.94,978.284 2150.85,968.38 2150.85,958.475 
  2150.85,948.57 2160.75,938.666 2160.75,928.761 2160.75,918.856 2160.75,908.952 2160.75,899.047 2170.66,889.142 2180.56,879.237 
  2190.47,869.333 2190.47,859.428 2190.47,849.523 2180.56,839.619 2170.66,839.619 2160.75,839.619 
  2150.85,839.619 2140.94,839.619 2131.04,829.714 2131.04,819.809 2131.04,809.905 2121.14,800 2121.14,790.095 2121.14,780.191 2121.14,770.286 
  2111.23,760.381 2111.23,750.477 2111.23,740.572 2101.33,730.667 2091.42,720.763 2091.42,710.858 
  2081.52,700.953 2071.61,691.048 2071.61,681.144 2061.71,671.239 2051.8,661.334 2051.8,651.43 
  2041.9,641.525 2031.99,641.525 2022.09,641.525 2012.18,641.525 2002.28,651.43 1992.37,661.334 1982.47,661.334 
  1972.57,671.239 1962.66,671.239 1952.76,681.144 1942.85,681.144 1932.95,681.144 1923.04,681.144 1913.14,681.144 1903.23,681.144 
  1893.33,681.144 1883.42,681.144 1873.52,681.144 1863.61,681.144 1853.71,681.144 1843.8,671.239 1833.9,661.334 1824,651.43 
  1824,641.525 1833.9,631.62 1833.9,621.716 1843.8,611.811 1843.8,601.906 1843.8,592.002 1843.8,582.097 1843.8,572.192 
  1843.8,562.288 1843.8,552.383 1853.71,542.478 1863.61,532.574 1863.61,522.669 1873.52,512.764 1883.42,502.86 
  1883.42,492.955 1883.42,483.05 1883.42,473.145 1883.42,463.241 1873.52,453.336 1873.52,443.431 1873.52,433.527 1873.52,423.622 
  1863.61,413.717 1863.61,403.813 1853.71,393.908 1853.71,384.003 1863.61,374.099 1863.61,364.194 1873.52,354.289 
  1883.42,344.385 1883.42,334.48 1883.42,324.575 1883.42,314.671 1873.52,304.766 1873.52,294.861 
  1863.61,284.956 1863.61,275.052 1853.71,265.147 1853.71,255.242 1843.8,245.338 1833.9,235.433 
  1824,225.528 1814.09,225.528 1804.19,225.528 1794.28,225.528 1784.38,225.528 1774.47,225.528 1764.57,225.528 1754.66,225.528 1744.76,225.528 
  1734.85,225.528 1724.95,225.528 1715.04,225.528 1705.14,235.433 1695.23,235.433 1685.33,235.433 1675.42,235.433 1665.52,235.433 1655.62,235.433 
  1645.71,235.433 1635.81,225.528 1625.9,215.624 1616,205.719 1606.09,205.719 1596.19,205.719 
  1586.28,215.624 1576.38,215.624 1566.47,225.528 1556.57,225.528 1546.66,225.528 1536.76,235.433 1526.85,235.433 1516.95,235.433 
  1507.05,245.338 1497.14,245.338 1487.24,255.242 1477.33,255.242 1467.43,265.147 1457.52,275.052 
  1447.62,284.956 1437.71,284.956 1427.81,275.052 1427.81,265.147 1417.9,255.242 1408,255.242 1398.09,255.242 
  1388.19,245.338 1378.28,235.433 1368.38,235.433 1358.47,235.433 1348.57,245.338 1338.67,245.338 1338.67,245.338 
  1328.76,255.242 1318.86,255.242 1308.95,265.147 1299.05,255.242 1299.05,245.338 1289.14,235.433 1279.24,235.433 
  1269.33,235.433 1259.43,225.528 1249.52,215.624 1249.52,205.719 1249.52,195.814 1249.52,185.91 1249.52,176.005 1249.52,166.1 1259.43,156.196 
  1269.33,146.291 1279.24,136.386 1289.14,126.482 1299.05,116.577 1299.05,106.672 
  1299.05,96.7675 1289.14,86.8628 1279.24,76.9581 1279.24,67.0535 1269.33,57.1488 1259.43,57.1488 
  1249.52,57.1488 1239.62,57.1488 1229.71,57.1488 1219.81,67.0535 1209.9,76.9581 1200,86.8628 1190.1,86.8628 
  1180.19,86.8628 1180.19,96.7675 1180.19,106.672 1180.19,116.577 1180.19,126.482 1180.19,136.386 1180.19,146.291 1180.19,156.196 1180.19,166.1 
  1180.19,176.005 1180.19,185.91 1180.19,195.814 1180.19,205.719 1190.1,215.624 1190.1,225.528 1200,235.433 1200,245.338 
  1200,255.242 1200,265.147 1190.1,275.052 1180.19,284.956 1170.29,284.956 1160.38,284.956 1150.48,284.956 1140.57,284.956 1130.67,284.956 
  1120.76,294.861 1110.86,294.861 1100.95,304.766 1091.05,304.766 1081.14,304.766 1071.24,304.766 1061.33,304.766 1051.43,304.766 
  1041.53,314.671 1031.62,314.671 1021.72,324.575 1021.72,324.575 1021.72,334.48 1011.81,344.385 1011.81,354.289 
  1011.81,364.194 1001.91,374.099 992.002,384.003 982.097,393.908 972.192,403.813 972.192,413.717 
  962.288,423.622 952.383,433.527 942.478,433.527 932.574,443.431 922.669,443.431 912.764,443.431 902.86,443.431 
  892.955,453.336 883.05,453.336 873.145,463.241 863.241,473.145 863.241,483.05 853.336,492.955 
  853.336,502.86 843.431,512.764 833.527,522.669 823.622,532.574 813.717,532.574 803.813,542.478 
  793.908,552.383 784.003,552.383 774.099,552.383 764.194,552.383 754.289,552.383 744.385,552.383 734.48,542.478 724.575,532.574 
  714.671,522.669 704.766,522.669 704.766,532.574 704.766,542.478 704.766,552.383 704.766,562.288 704.766,572.192 704.766,582.097 
  704.766,592.002 694.861,601.906 684.956,601.906 675.052,601.906 665.147,601.906 655.242,592.002 645.338,582.097 635.433,572.192 
  625.528,572.192 615.624,572.192 605.719,572.192 595.814,572.192 585.91,572.192 576.005,572.192 566.1,582.097 
  556.196,592.002 556.196,601.906 556.196,611.811 556.196,621.716 556.196,631.62 556.196,641.525 566.1,641.525 576.005,651.43 
  585.91,661.334 595.814,661.334 605.719,671.239 605.719,671.239 615.624,681.144 625.528,681.144 635.433,691.048 
  645.338,691.048 655.242,700.953 665.147,710.858 665.147,720.763 665.147,730.667 675.052,740.572 
  684.956,750.477 694.861,760.381 704.766,770.286 704.766,780.191 704.766,790.095 704.766,800 704.766,809.905 704.766,819.809 
  694.861,829.714 694.861,839.619 694.861,849.523 694.861,859.428 694.861,869.333 694.861,879.237 684.956,889.142 684.956,899.047 
  684.956,908.952 675.052,918.856 675.052,928.761 665.147,938.666 665.147,948.57 655.242,958.475 655.242,968.38 
  645.338,978.284 635.433,978.284 625.528,978.284 615.624,978.284 605.719,968.38 595.814,968.38 585.91,968.38 576.005,968.38 566.1,968.38 
  556.196,968.38 546.291,958.475 536.386,958.475 526.482,958.475 516.577,958.475 506.672,958.475 496.768,958.475 486.863,958.475 476.958,948.57 
  467.053,948.57 457.149,948.57 447.244,948.57 437.339,948.57 427.435,948.57 417.53,938.666 407.625,938.666 397.721,938.666 
  387.816,938.666 377.911,928.761 368.007,918.856 358.102,908.952 348.197,908.952 338.293,908.952 
  328.388,918.856 318.483,918.856 318.483,918.856 308.579,928.761 298.674,928.761 288.769,928.761 278.864,938.666 278.864,948.57 
  278.864,958.475 278.864,968.38 278.864,978.284 278.864,988.189 278.864,998.094 278.864,1008 278.864,1017.9 278.864,1027.81 278.864,1037.71 278.864,1047.62 
  278.864,1057.52 278.864,1067.43 278.864,1077.33 278.864,1087.24 278.864,1097.14 278.864,1107.05 278.864,1116.95 268.96,1126.85 268.96,1136.76 
  259.055,1146.66 259.055,1156.57 249.15,1166.47 249.15,1176.38 249.15,1186.28 239.246,1196.19 239.246,1206.09 
  229.341,1216 229.341,1225.9 219.436,1235.81 219.436,1245.71 209.532,1255.62 209.532,1265.52 209.532,1275.42 
  209.532,1285.33 209.532,1295.23 219.436,1305.14 219.436,1315.04 219.436,1324.95 219.436,1334.85 219.436,1344.76 219.436,1354.66 209.532,1364.57 
  209.532,1374.47 209.532,1384.38 209.532,1394.28 219.436,1404.19 229.341,1404.19 239.246,1404.19 249.15,1404.19 
  259.055,1404.19 268.96,1404.19 278.864,1404.19 288.769,1404.19 298.674,1404.19 308.579,1414.09 308.579,1414.09 318.483,1414.09 328.388,1424 328.388,1424 
  338.293,1433.9 338.293,1443.8 348.197,1453.71 348.197,1463.61 348.197,1473.52 348.197,1483.42 358.102,1493.33 358.102,1493.33 
  368.007,1493.33 377.911,1503.23 387.816,1503.23 397.721,1503.23 407.625,1503.23 417.53,1503.23 427.435,1493.33 437.339,1493.33 
  437.339,1493.33 447.244,1483.42 457.149,1473.52 467.053,1473.52 476.958,1473.52 486.863,1473.52 496.768,1473.52 506.672,1473.52 516.577,1483.42 
  526.482,1483.42 536.386,1483.42 546.291,1483.42 556.196,1483.42 566.1,1483.42 576.005,1483.42 585.91,1473.52 
  585.91,1463.61 595.814,1453.71 595.814,1443.8 605.719,1433.9 615.624,1433.9 625.528,1433.9 635.433,1433.9 645.338,1433.9 655.242,1443.8 
  665.147,1443.8 675.052,1433.9 675.052,1424 675.052,1414.09 675.052,1404.19 675.052,1394.28 675.052,1384.38 
  684.956,1374.47 694.861,1374.47 704.766,1364.57 714.671,1354.66 714.671,1344.76 704.766,1334.85 
  704.766,1324.95 704.766,1315.04 694.861,1305.14 694.861,1295.23 694.861,1285.33 704.766,1275.42 704.766,1265.52 714.671,1255.62 
  714.671,1245.71 724.575,1235.81 734.48,1225.9 734.48,1216 744.385,1206.09 744.385,1196.19 
  754.289,1186.28 754.289,1176.38 764.194,1166.47 774.099,1156.57 784.003,1156.57 793.908,1156.57 803.813,1156.57 
  813.717,1146.66 823.622,1146.66 833.527,1146.66 843.431,1146.66 853.336,1136.76 863.241,1136.76 873.145,1136.76 883.05,1136.76 
  892.955,1126.85 892.955,1116.95 892.955,1107.05 892.955,1097.14 892.955,1087.24 892.955,1077.33 892.955,1067.43 892.955,1057.52 902.86,1047.62 
  912.764,1037.71 922.669,1027.81 932.574,1017.9 942.478,1017.9 952.383,1017.9 962.288,1017.9 972.192,1017.9 
  982.097,1017.9 992.002,1017.9 1001.91,1017.9 1011.81,1027.81 1021.72,1037.71 1021.72,1037.71 1031.62,1047.62 1041.53,1047.62 
  1051.43,1047.62 1061.33,1047.62 1071.24,1037.71 1081.14,1027.81 1091.05,1017.9 1100.95,1008 
  1110.86,1008 1120.76,998.094 1130.67,988.189 1140.57,978.284 1150.48,978.284 1150.48,978.284 1160.38,968.38 
  1170.29,958.475 1180.19,958.475 1190.1,958.475 1200,968.38 1209.9,968.38 1219.81,978.284 1219.81,978.284 1229.71,978.284 
  1239.62,988.189 1249.52,998.094 1249.52,1008 1249.52,1017.9 1259.43,1027.81 1259.43,1037.71 1269.33,1047.62 
  1269.33,1057.52 1269.33,1067.43 1279.24,1077.33 1279.24,1087.24 1279.24,1097.14 1289.14,1107.05 1299.05,1116.95 
  1308.95,1116.95 1318.86,1126.85 1328.76,1136.76 1338.67,1146.66 1338.67,1146.66 1348.57,1156.57 
  1358.47,1156.57 1368.38,1166.47 1378.28,1176.38 1388.19,1186.28 1398.09,1196.19 1408,1196.19 
  1417.9,1206.09 1427.81,1216 1437.71,1225.9 1447.62,1235.81 1457.52,1235.81 1467.43,1245.71 
  1477.33,1255.62 1487.24,1265.52 1497.14,1275.42 1507.05,1285.33 1516.95,1295.23 
  1526.85,1305.14 1526.85,1315.04 1526.85,1324.95 1536.76,1334.85 1536.76,1344.76 1536.76,1354.66 1536.76,1364.57 1536.76,1374.47 
  1526.85,1384.38 1526.85,1394.28 1516.95,1404.19 1516.95,1414.09 1507.05,1424 1497.14,1424 1487.24,1424 1477.33,1424 
  1467.43,1424 1457.52,1424 1447.62,1424 1437.71,1424 1427.81,1424 1417.9,1433.9 1408,1424 1398.09,1424 
  1388.19,1424 1378.28,1433.9 1368.38,1443.8 1358.47,1443.8 1348.57,1453.71 1348.57,1463.61 
  1358.47,1473.52 1368.38,1473.52 1378.28,1483.42 1388.19,1483.42 1398.09,1493.33 1398.09,1493.33 1408,1493.33 
  1417.9,1503.23 1427.81,1503.23 1437.71,1513.14 1447.62,1513.14 1457.52,1523.04 1467.43,1523.04 1477.33,1532.95 
  
  "/>
<polyline clip-path="url(#clip332)" style="stroke:#ff0000; stroke-linecap:butt; stroke-linejoin:round; stroke-width:8; stroke-opacity:1; fill:none" points="
  1883.42,1523.04 1893.33,1523.04 1903.23,1523.04 1913.14,1523.04 1923.04,1523.04 1932.95,1513.14 1932.95,1503.23 1932.95,1493.33 
  1932.95,1483.42 1932.95,1473.52 1932.95,1463.61 1932.95,1453.71 1942.85,1443.8 1952.76,1443.8 1962.66,1433.9 1962.66,1424 
  1962.66,1414.09 1952.76,1404.19 1942.85,1394.28 1932.95,1384.38 1923.04,1374.47 
  1913.14,1364.57 1913.14,1354.66 1913.14,1344.76 1913.14,1334.85 1923.04,1324.95 1923.04,1315.04 1913.14,1305.14 1913.14,1295.23 
  1903.23,1285.33 1903.23,1275.42 1893.33,1265.52 1903.23,1255.62 1913.14,1255.62 1923.04,1255.62 1932.95,1255.62 1942.85,1265.52 
  1952.76,1265.52 1962.66,1255.62 1972.57,1245.71 1982.47,1235.81 1992.37,1235.81 
  2002.28,1225.9 2012.18,1216 2022.09,1206.09 2031.99,1206.09 2041.9,1196.19 2051.8,1186.28 
  2051.8,1176.38 2061.71,1166.47 2061.71,1156.57 2066.66,1146.66 2061.71,1141.71 2051.8,1141.71 2046.85,1136.76 2041.9,1131.81 
  2036.95,1126.85 2031.99,1121.9 2027.04,1116.95 2022.09,1112 2017.14,1107.05 2012.18,1102.09 2007.23,1097.14 2002.28,1092.19 1997.33,1087.24 1992.37,1082.28 
  1987.42,1077.33 1982.47,1072.38 1972.57,1072.38 1967.61,1067.43 1962.66,1062.47 1957.71,1057.52 1952.76,1052.57 1942.85,1052.57 1937.9,1047.62 1932.95,1042.66 
  1923.04,1042.66 1918.09,1037.71 1913.14,1032.76 1903.23,1032.76 1893.33,1032.76 1883.42,1032.76 1878.47,1027.81 1873.52,1022.86 1863.61,1022.86 1853.71,1022.86 
  1843.8,1022.86 1833.9,1022.86 1824,1022.86 1814.09,1022.86 1809.14,1027.81 1804.19,1032.76 1794.28,1032.76 1784.38,1032.76 1774.47,1032.76 1769.52,1037.71 
  1764.57,1042.66 1754.66,1042.66 1744.76,1042.66 1734.85,1042.66 1729.9,1047.62 1724.95,1052.57 1715.04,1052.57 1705.14,1052.57 1700.19,1057.52 1695.23,1062.47 
  1690.28,1067.43 1685.33,1072.38 1675.42,1072.38 1670.47,1077.33 1665.52,1082.28 1660.57,1087.24 1665.52,1097.14 1675.42,1107.05 
  1685.33,1116.95 1685.33,1126.85 1695.23,1136.76 1705.14,1146.66 1705.14,1156.57 1705.14,1166.47 1705.14,1176.38 1705.14,1186.28 
  1705.14,1196.19 1705.14,1206.09 1705.14,1216 1715.04,1225.9 1715.04,1235.81 1715.04,1245.71 1715.04,1255.62 1715.04,1265.52 
  1724.95,1275.42 1724.95,1285.33 1734.85,1295.23 1744.76,1305.14 1744.76,1315.04 1754.66,1324.95 
  1764.57,1334.85 1764.57,1344.76 1764.57,1344.76 1774.47,1354.66 1784.38,1364.57 1794.28,1374.47 1794.28,1384.38 
  1804.19,1394.28 1814.09,1404.19 1824,1414.09 1814.09,1424 1814.09,1433.9 1814.09,1443.8 1814.09,1453.71 
  1814.09,1463.61 1824,1473.52 1833.9,1483.42 1833.9,1493.33 1833.9,1493.33 1843.8,1503.23 1843.8,1503.23 1853.71,1513.14 
  1863.61,1513.14 1873.52,1513.14 1883.42,1523.04 
  "/>
</svg>
